<?xml version="1.0" encoding="UTF-8"?>
<!DOCTYPE svg PUBLIC "-//W3C//DTD SVG 1.1//EN" "http://www.w3.org/Graphics/SVG/1.1/DTD/svg11.dtd">
<!-- Creator: CorelDRAW X8 -->
<svg xmlns="http://www.w3.org/2000/svg" xml:space="preserve"  version="1.1"  x="0px" y="0px"
viewBox="7023 6512 6574 4696"
 xmlns:xlink="http://www.w3.org/1999/xlink">
 <defs>
  <style type="text/css">
   <![CDATA[
    .fil1 {fill:white}
    .fil0 {fill:#b71c1c}
    .fil2 {fill:white;fill-rule:nonzero}
   ]]>
  </style>
 </defs>
 <g id="Слой_x0020_1">
  <metadata id="CorelCorpID_0Corel-Layer"/>
  <polygon class="fil0" points="7023,6512 13597,6512 13597,11208 7023,11208 "/>
  <polygon class="fil1" points="10745,7311 11591,7784 10744,7112 8840,8145 "/>
  <polygon class="fil1" points="9942,7206 10225,7394 10377,7434 10386,7429 9942,7076 8499,7784 "/>
  <polygon class="fil1" points="11591,7185 12130,7456 12131,7454 11591,7077 11065,7388 11108,7422 "/>
  <path class="fil2" d="M8696 10372l0 -6c0,-21 -5,-36 -16,-44 -10,-8 -29,-12 -57,-12l-160 0 0 -73 189 0c38,0 67,6 86,18 35,23 53,67 53,132l0 195 -221 0c-42,0 -73,-7 -93,-20 -26,-16 -38,-43 -38,-82 0,-35 10,-62 30,-80 21,-19 53,-28 96,-28l131 0zm0 74l-126 0c-23,0 -35,10 -35,31 0,11 4,19 12,24 7,5 20,7 39,7l110 0 0 -62zm408 62l0 -271 95 0 0 345 -187 0c-27,0 -48,-2 -62,-6 -14,-4 -27,-11 -40,-22 -24,-23 -36,-58 -36,-105l0 -212 95 0 0 221c0,33 15,50 46,50l89 0zm214 -271l0 -129 95 0 0 129 88 0 0 73 -88 0 0 126c0,17 0,30 1,37 1,7 3,13 7,18 8,11 22,17 42,17l38 0 0 74 -69 0c-38,0 -66,-9 -84,-27 -11,-10 -20,-23 -24,-38 -4,-15 -6,-37 -6,-65l0 -142 -60 0 0 -73 60 0zm414 -5c60,0 105,16 137,50 30,32 45,75 45,131 0,53 -16,96 -49,127 -33,31 -78,47 -135,47 -57,0 -101,-16 -133,-47 -32,-31 -47,-76 -47,-133 0,-53 16,-95 49,-127 33,-32 77,-48 133,-48zm0 73c-57,0 -85,35 -85,105 0,69 28,103 86,103 56,0 84,-35 84,-104 0,-69 -28,-104 -85,-104zm246 -68l349 0c56,0 95,11 117,35 19,19 28,49 28,90l0 220 -95 0 0 -205c0,-26 -4,-43 -12,-53 -8,-9 -23,-14 -45,-14l-50 0 0 272 -95 0 0 -272 -102 0 0 272 -95 0 0 -345zm821 135l0 -6c0,-21 -5,-36 -16,-44 -10,-8 -29,-12 -57,-12l-160 0 0 -73 189 0c38,0 67,6 86,18 35,23 53,67 53,132l0 195 -221 0c-42,0 -73,-7 -93,-20 -26,-16 -38,-43 -38,-82 0,-35 10,-62 30,-80 21,-19 53,-28 96,-28l131 0zm0 74l-126 0c-23,0 -35,10 -35,31 0,11 4,19 12,24 7,5 21,7 39,7l110 0 0 -62zm208 -209l0 -129 95 0 0 129 88 0 0 73 -88 0 0 126c0,17 1,30 1,37 1,7 4,13 7,18 8,11 22,17 42,17l38 0 0 74 -69 0c-38,0 -66,-9 -83,-27 -12,-10 -20,-23 -25,-38 -4,-15 -6,-37 -6,-65l0 -142 -60 0 0 -73 60 0zm248 0l95 0 0 345 -95 0 0 -345zm0 -37l0 -92 95 0 0 92 -95 0zm347 32c60,0 106,16 138,50 30,32 45,75 45,131 0,53 -16,96 -49,127 -34,31 -78,47 -135,47 -57,0 -102,-16 -133,-47 -32,-31 -48,-76 -48,-133 0,-53 17,-95 50,-127 33,-32 77,-48 132,-48zm1 73c-57,0 -86,35 -86,105 0,69 29,103 87,103 56,0 84,-35 84,-104 0,-69 -28,-104 -85,-104zm253 -68l183 0c53,0 90,11 111,35 18,20 27,52 27,97l0 213 -95 0 0 -224c0,-17 -4,-29 -11,-36 -8,-8 -20,-12 -38,-12l-82 0 0 272 -95 0 0 -345z"/>
  <path class="fil1" d="M8828 9328l0 333 0 46 0 251 -205 0c-82,0 -149,-67 -149,-149l0 -102 0 0 0 -1413 813 0c252,0 434,46 545,138 92,74 137,184 137,327 0,252 -105,414 -316,487 100,27 175,78 225,153 51,76 76,178 76,308 0,73 3,121 8,145 5,23 16,59 32,107l-396 0c-11,-35 -20,-75 -26,-119 -6,-44 -9,-83 -9,-118 -16,-151 -57,-255 -121,-310 -64,-56 -174,-84 -330,-84l-284 0zm2873 -1034l325 0c82,0 149,67 149,148l0 149 -474 0 0 0 -74 0 0 1368 -354 0 0 -1368 -531 0 0 -297 959 0 0 0zm-1141 1664l-205 0c-82,0 -149,-67 -149,-149l0 -148 0 0 0 -973 354 0 0 1021 0 0 0 249zm-354 -1370l0 -294 354 0 0 294 -354 0zm-1378 444l496 0c93,0 159,-19 197,-57 38,-37 57,-95 57,-174 0,-72 -17,-123 -52,-155 -40,-37 -107,-55 -202,-55l-496 0 0 441z"/>
 </g>
</svg>
