<?xml version="1.0" standalone="no"?>
<!DOCTYPE svg PUBLIC "-//W3C//DTD SVG 1.1//EN" "http://www.w3.org/Graphics/SVG/1.1/DTD/svg11.dtd" >
<svg>
<metadata>
Created by FontForge 20090914 at Tue Apr  4 10:26:21 2017
 By www-data
HarRier Bold TYGRA (c). Russian Edition by Dmytry Manoshin, (c) 1996. Copyright 1996 TYGRA.  All rights reserved.
</metadata>
<defs>
<font id="HarRier-BoldTYGRA" horiz-adv-x="500" >
  <font-face 
    font-family="HarRier TYGRA"
    font-weight="700"
    font-stretch="normal"
    units-per-em="1000"
    panose-1="0 0 0 0 0 0 0 0 0 0"
    ascent="800"
    descent="-200"
    x-height="487"
    cap-height="667"
    bbox="-41 -183 1238 840.002"
    underline-thickness="109"
    underline-position="-39"
    unicode-range="U+0020-U+2122"
  />
<missing-glyph 
d="M31 0v817h438v-817h-438zM438 31v755h-376v-755h376z" />
    <glyph glyph-name=".notdef" 
d="M31 0v817h438v-817h-438zM438 31v755h-376v-755h376z" />
    <glyph glyph-name="space" unicode=" " horiz-adv-x="250" 
 />
    <glyph glyph-name="exclam" unicode="!" horiz-adv-x="274" 
d="M208 667v-504h-142v504h142zM208 113v-113h-142v113h142z" />
    <glyph glyph-name="quotedbl" unicode="&#x22;" horiz-adv-x="409" 
d="M154 399h-91v268h91v-268zM347 399h-91v268h91v-268z" />
    <glyph glyph-name="numbersign" unicode="#" horiz-adv-x="653" 
d="M196 633h112l-27 -168h131l27 168h113l-27 -168h110l-10 -67h-111l-18 -116h110l-10 -67h-111l-29 -182h-112l29 182h-131l-29 -182h-113l29 182h-110l11 67h110l18 116h-110l10 67h111zM402 398h-131l-18 -116h130z" />
    <glyph glyph-name="dollar" unicode="$" horiz-adv-x="696" 
d="M308 119l0.00195312 160.999c-54 0 -90.333 1 -109 3s-38.667 7 -60 15c-30.667 12.667 -55.667 34.667 -75 66s-29 66.333 -29 105c0 48.667 14 91.834 42 129.501s62.333 59.167 103 64.5c25.333 2.66699 68 4 128 4v96h82v-96h234v-119h-234v-149
c57.333 0 96.166 -1.33301 116.499 -4s41.833 -10 64.5 -22c60 -30.667 90 -89.667 90 -177c0 -39.333 -9 -75.333 -27 -108s-41.667 -55.667 -71 -69c-19.333 -8.66699 -38.333 -14 -57 -16s-57.334 -3 -116.001 -3v-98h-82v98h-241v119h241zM390.002 279.999v-161.001
c24.667 0 44 2 58 6c16 3.33301 29.167 11.833 39.5 25.5s15.5 29.167 15.5 46.5c0 32.667 -14.333 56.334 -43 71.001c-8 4 -17 7 -27 9s-24.333 3 -43 3zM308.002 398.998v148.999c-11.333 0 -21.5 -0.333008 -30.5 -1s-18.833 -1.66699 -29.5 -3
c-37.333 -5.33301 -56 -28.666 -56 -69.999c0 -42.667 23 -67 69 -73c6 -1.33301 12.5 -2 19.5 -2h27.5z" />
    <glyph glyph-name="percent" unicode="%" horiz-adv-x="883" 
d="M215 670c119.333 0 179 -56.333 179 -169c0 -112 -56.667 -168 -170 -168c-123.333 0 -185 56.667 -185 170c0 111.333 58.667 167 176 167zM214 598c-51.333 0 -77 -31 -77 -93c0 -35.333 6.5 -60.833 19.5 -76.5s34.167 -23.5 63.5 -23.5c50.667 0 76 33 76 99
c0 62.667 -27.333 94 -82 94zM531 667h85l-269 -667h-85zM664 333c119.333 0 179 -56.333 179 -169c0 -112 -56.667 -168 -170 -168c-124 0 -186 56.667 -186 170c0 111.333 59 167 177 167zM662 261c-51.333 0 -77 -31.332 -77 -93.999c0 -34.667 6.5 -59.834 19.5 -75.501
s34.5 -23.5 64.5 -23.5c50.667 0 76 33 76 99c0 62.667 -27.667 94 -83 94z" />
    <glyph glyph-name="ampersand" unicode="&#x26;" horiz-adv-x="751" 
d="M737 393l0.000976562 -119.001h-93c-33.333 -103.333 -75.833 -175.5 -127.5 -216.5s-126.167 -61.5 -223.5 -61.5c-38.667 0 -70.667 2.66699 -96 8s-48 14 -68 26c-56.667 34 -85 88.667 -85 164c0 70.667 28 116.667 84 138c-62 39.333 -93 92 -93 158
c0 33.333 8 64.5 24 93.5s37.667 50.167 65 63.5s72.666 20 135.999 20h223v-119h-191c-62.667 0 -94 -25 -94 -75c0 -24 7.33301 -43.333 22 -58s33.667 -22 57 -22h48v-119h-22c-26 0 -43.333 -0.666992 -52 -2s-16.667 -5 -24 -11c-18 -13.333 -27 -33.666 -27 -60.999
c0 -56 36.333 -84 109 -84c52.667 0 93.5 12.333 122.5 37s49.833 65 62.5 121h-96v119h339z" />
    <glyph glyph-name="quotesingle" unicode="'" horiz-adv-x="216" 
d="M154 399h-91v268h91v-268z" />
    <glyph glyph-name="parenleft" unicode="(" horiz-adv-x="425" 
d="M392 762l0.000976562 -111c-72.667 0 -124.834 -26 -156.501 -78s-47.5 -136 -47.5 -252c0 -114 21 -194.333 63 -241c16 -18.667 34.5 -32.5 55.5 -41.5s49.5 -15.167 85.5 -18.5v-112c-58 0 -106.333 7.83301 -145 23.5s-73 39.167 -103 70.5
c-66.667 70.667 -100 179.667 -100 327c0 162 41.667 280.667 125 356c32 29.333 61.667 49 89 59c32 12 76.667 18 134 18z" />
    <glyph glyph-name="parenright" unicode=")" horiz-adv-x="425" 
d="M33 651l0.000976562 111c34 0 60.5 -1.83301 79.5 -5.5s38.5 -9.5 58.5 -17.5c68 -27.333 120 -76 156 -146s54 -158 54 -264c0 -164 -41 -279.667 -123 -347c-28.667 -24 -60.5 -42.333 -95.5 -55s-78.167 -19 -129.5 -19v112c37.333 3.33301 66 9.33301 86 18
s38.333 22.667 55 42c42 46.667 63 127 63 241c0 116 -15.833 200 -47.5 252s-83.834 78 -156.501 78z" />
    <glyph glyph-name="asterisk" unicode="*" horiz-adv-x="367" 
d="M131 380l-64 46l54 74l-91 27l28 74l89 -29l-3 95h79l-3 -95l88 29l29 -74l-91 -27l54 -74l-64 -46l-53 75z" />
    <glyph glyph-name="plus" unicode="+" horiz-adv-x="559" 
d="M37 395h187v178h113v-178h186v-109h-186v-179h-113v179h-187v109z" />
    <glyph glyph-name="comma" unicode="," horiz-adv-x="234" 
d="M182 130v-116l-77 -151h-61l61 137h-44v130h121z" />
    <glyph glyph-name="hyphen" unicode="-" horiz-adv-x="233" 
d="M233 318v-120h-233v120h233z" />
    <glyph glyph-name="period" unicode="." horiz-adv-x="224" 
d="M172 130v-130h-121v130h121z" />
    <glyph glyph-name="slash" unicode="/" horiz-adv-x="533" 
d="M84 -92h-125l491 850h125z" />
    <glyph glyph-name="zero" unicode="0" horiz-adv-x="725" 
d="M359 671c112 0 195.333 -27.668 250 -83.001s82 -140.333 82 -255c0 -224.667 -104.667 -337 -314 -337c-116.667 0 -203.167 27.833 -259.5 83.5s-84.5 140.834 -84.5 255.501c0 114 26.833 198.5 80.5 253.5s135.5 82.5 245.5 82.5zM356 558.999
c-32 0 -60.001 -6.66602 -84.001 -19.999s-42.667 -32.333 -56 -57c-7.33301 -14.667 -13.666 -35.5 -18.999 -62.5s-8 -53.167 -8 -78.5c0 -32.667 3 -64 9 -94s14 -53.667 24 -71c26.667 -45.333 75.667 -68 147 -68c36 0 65 6.5 87 19.5s40 33.833 54 62.5
c7.33301 16 13.333 37.833 18 65.5s7 55.5 7 83.5c0 36.667 -4 69.5 -12 98.5s-19.667 52.5 -35 70.5c-12.667 15.333 -31 27.666 -55 36.999s-49.667 14 -77 14z" />
    <glyph glyph-name="one" unicode="1" horiz-adv-x="278" 
d="M210 0h-142v667h142v-667z" />
    <glyph glyph-name="two" unicode="2" horiz-adv-x="661" 
d="M177 118l434.997 0.000976562v-118h-577v177c0 76.667 19 133.667 57 171c17.333 17.333 36.833 29 58.5 35s54.834 9 99.501 9h109c36.667 0 63.667 5 81 15c22 13.333 33 33.333 33 60c0 32 -11.667 54.667 -35 68c-17.333 9.33301 -43.666 14 -78.999 14h-313v118h343
c86.667 0 147.334 -15.333 182.001 -46c38.667 -34.667 58 -84.334 58 -149.001c0 -40 -7 -75 -21 -105s-34 -52 -60 -66c-33.333 -18 -83 -27 -149 -27h-94c-36.667 0 -62.667 -2 -78 -6s-27 -12.333 -35 -25c-10 -15.333 -15 -37.333 -15 -66v-59z" />
    <glyph glyph-name="three" unicode="3" horiz-adv-x="619" 
d="M33 0v117.999h286c38.667 0 66 6 82 18s24 32.333 24 61c0 34 -11.667 57.333 -35 70c-5.33301 3.33301 -14.333 6 -27 8s-27.334 3 -44.001 3h-223v118h223c26 0 44.333 1 55 3s20.334 6.66699 29.001 14c14 12 21 31.333 21 58c0 30 -10.667 52 -32 66
c-8 5.33301 -16.167 8.66602 -24.5 9.99902s-24.5 2 -48.5 2h-286v118h311c46.667 0 75.667 -0.666992 87 -2s25.666 -5.66602 42.999 -12.999c30.667 -12.667 56 -34.667 76 -66s30 -65.666 30 -102.999c0 -62.667 -29.667 -111 -89 -145
c60 -38.667 90 -92.334 90 -161.001c0 -63.333 -24 -110.666 -72 -141.999c-22 -14 -45.167 -23.333 -69.5 -28s-62.166 -7 -113.499 -7h-293z" />
    <glyph glyph-name="four" unicode="4" horiz-adv-x="706" 
d="M25 116v141l376 410h187v-433h88v-118h-88v-116h-142v116h-421zM184 234h262v285z" />
    <glyph glyph-name="five" unicode="5" horiz-adv-x="676" 
d="M606 667l0.000976562 -118h-406v-153h211c42 0 75.667 -3 101 -9s46.666 -16 63.999 -30c44 -36 66 -87 66 -153c0 -86.667 -37.333 -146.667 -112 -180c-20 -8 -44.5 -14 -73.5 -18s-64.5 -6 -106.5 -6h-292v118h292c40.667 0 69.667 2.83301 87 8.5
s29.833 14.667 37.5 27s11.5 26.833 11.5 43.5c0 18 -4.33301 34 -13 48s-19 22.667 -31 26s-21.667 5.33301 -29 6s-28.333 1 -63 1h-292v389h548z" />
    <glyph glyph-name="six" unicode="6" horiz-adv-x="691" 
d="M192 393l224.998 0.00292969c55.333 0 94.333 -2.5 117 -7.5s43 -15.5 61 -31.5c40.667 -34.667 61 -83.667 61 -147c0 -78 -34.667 -137 -104 -177c-40.667 -22.667 -101.667 -34 -183 -34c-62 0 -110.667 5.16699 -146 15.5s-66.666 28.166 -93.999 53.499
c-29.333 28 -52.666 66.167 -69.999 114.5s-26 100.166 -26 155.499c0 60 9.66699 115.167 29 165.5s46 88.5 80 114.5c25.333 18.667 55.333 32 90 40s82 12 142 12h246v-118h-203c-93.333 0 -152 -9.33301 -176 -28c-15.333 -11.333 -27.333 -28.333 -36 -51
s-13 -48.334 -13 -77.001zM391.998 275.003l-199.999 -0.000976562c0 -48 9.66699 -86.667 29 -116c12.667 -19.333 29.667 -32.666 51 -39.999s54.666 -11 99.999 -11c46 0 78.833 6.5 98.5 19.5s29.5 34.833 29.5 65.5c0 29.333 -11 52 -33 68
c-13.333 9.33301 -38.333 14 -75 14z" />
    <glyph glyph-name="seven" unicode="7" horiz-adv-x="632" 
d="M609 667v-118l-405 -549h-174l419 549h-422v118h582z" />
    <glyph glyph-name="eight" unicode="8" horiz-adv-x="707" 
d="M138 333c-37.333 22.667 -63.333 45.667 -78 69s-22 54.333 -22 93c0 82 37.667 135.667 113 161c16 5.33301 38.833 9.16602 68.5 11.499s68.834 3.5 117.501 3.5c81.333 0 135 -1.16699 161 -3.5s49.333 -7.83301 70 -16.5c30.667 -13.333 55 -34.666 73 -63.999
s27 -63 27 -101c0 -72 -34 -123 -102 -153c31.333 -18 52.666 -34.333 63.999 -49c23.333 -28.667 35 -63.667 35 -105c0 -24.667 -5.33301 -49 -16 -73s-25.334 -44.833 -44.001 -62.5s-45.667 -30 -81 -37s-87 -10.5 -155 -10.5c-19.333 0 -40.666 0.333008 -63.999 1
l-67 2c-33.333 0 -61.5 4.33301 -84.5 13s-43.5 22 -61.5 40c-36 36 -54 77.333 -54 124c0 18.667 3 37.167 9 55.5s14.333 34.833 25 49.5c13.333 16.667 35.333 34 66 52zM352 559c-60.667 0 -98.6699 -3.33203 -114.003 -9.99902c-29.333 -11.333 -44 -36 -44 -74
c0 -44 17.333 -70.333 52 -79c18.667 -3.33301 54.334 -5 107.001 -5c66.667 0 106.667 3.33301 120 10c26 11.333 39 35 39 71c0 44.667 -19.667 71.667 -59 81c-5.33301 1.33301 -18.666 2.66602 -39.999 3.99902s-41.666 2 -60.999 2zM351.997 281.001
c-60 0 -98.334 -3.66602 -115.001 -10.999c-28 -12.667 -42 -37.667 -42 -75c0 -46 17.333 -73.333 52 -82c16.667 -3.33301 51.667 -5 105 -5c66 0 105.667 3.33301 119 10c25.333 12 38 36.667 38 74c0 45.333 -19 73 -57 83
c-5.33301 1.33301 -18.666 2.66602 -39.999 3.99902s-41.333 2 -60 2z" />
    <glyph glyph-name="nine" unicode="9" horiz-adv-x="691" 
d="M499 274l-224.998 -0.00195312c-55.333 0 -94.333 2.5 -117 7.5s-43 15.5 -61 31.5c-40.667 34.667 -61 83.667 -61 147c0 78 34.667 137 104 177c40.667 22.667 101.667 34 183 34c62 0 110.667 -5.16699 146 -15.5s67.166 -28.833 95.499 -55.5
s51.166 -64.167 68.499 -112.5s26 -100.166 26 -155.499c0 -60 -9.66699 -115.167 -29 -165.5s-46 -88.5 -80 -114.5c-25.333 -18.667 -55.333 -32 -90 -40s-82 -12 -142 -12h-246v118h203c93.333 0 152 9.33301 176 28c15.333 11.333 27.333 28.333 36 51
s13 48.334 13 77.001zM299.002 391.998l200.002 0.00195312c0 48 -9.66699 86.667 -29 116c-12.667 19.333 -29.667 32.666 -51 39.999s-53.333 11 -96 11c-28 0 -49.333 -1.33301 -64 -4s-26.667 -7.33398 -36 -14.001c-21.333 -14 -32 -36.667 -32 -68
c0 -30 11.333 -52.333 34 -67c7.33301 -5.33301 16.166 -9 26.499 -11s26.166 -3 47.499 -3z" />
    <glyph glyph-name="colon" unicode=":" horiz-adv-x="224" 
d="M172 130v-130h-121v130h121zM172 364v-130h-121v130h121z" />
    <glyph glyph-name="semicolon" unicode=";" horiz-adv-x="234" 
d="M182 364v-130h-121v130h121zM182 130v-116l-77 -151h-61l61 137h-44v130h121z" />
    <glyph glyph-name="less" unicode="&#x3c;" 
d="M466 631v-154l-270 -140l270 -141v-152l-433 229v129z" />
    <glyph glyph-name="equal" unicode="=" horiz-adv-x="559" 
d="M37 491h486v-109h-486v109zM37 299h486v-109h-486v109z" />
    <glyph glyph-name="greater" unicode="&#x3e;" 
d="M33 44v153l269 141l-269 140v153l433 -229v-130z" />
    <glyph glyph-name="question" unicode="?" horiz-adv-x="681" 
d="M59 667l349 -0.000976562c52 0 88 -2 108 -6s40.667 -13.667 62 -29c46.667 -34 70 -88.667 70 -164s-24.333 -129 -73 -161c-29.333 -20.667 -78 -31 -146 -31h-88c-50 0 -82.5 -6 -97.5 -18s-22.5 -32.333 -22.5 -61v-34h-142v48c0 67.333 18 116 54 146
c30.667 24.667 85.667 37 165 37h81c43.333 0 72.333 5 87 15c17.333 12 26 33.667 26 65c0 26.667 -7.16699 45.834 -21.5 57.501s-37.833 17.5 -70.5 17.5h-41h-300v118zM221 112.999v-113h-142v113h142z" />
    <glyph glyph-name="at" unicode="@" horiz-adv-x="793" 
d="M588 73l0.00390625 -73.0029h-226c-58 0 -104.833 5 -140.5 15s-65.834 27 -90.501 51c-29.333 28.667 -53 67.5 -71 116.5s-27 99.167 -27 150.5c0 60.667 11 117 33 169s51.667 91.333 89 118c28 19.333 62.167 33.666 102.5 42.999s89.833 14 148.5 14
c116.667 0 202 -20.667 256 -62c30 -22.667 53.667 -52.667 71 -90s26 -77.666 26 -120.999c0 -36.667 -6.66699 -72.167 -20 -106.5s-31.333 -63.5 -54 -87.5c-12.667 -12.667 -26.834 -23.5 -42.501 -32.5s-35.167 -17.5 -58.5 -25.5h-213
c-40.667 0 -67.5 1.33301 -80.5 4s-26.833 9.66699 -41.5 21c-30.667 22.667 -46 58 -46 106c0 41.333 7 79 21 113s33.667 60 59 78c18.667 13.333 40 23.333 64 30s52.333 10 85 10h149l-41 -294h42c22 16.667 39.667 41.334 53 74.001s20 68.334 20 107.001
c0 38 -6.83301 71.833 -20.5 101.5s-32.834 52.167 -57.501 67.5c-38 22.667 -95 34 -171 34c-98 0 -165.333 -20.667 -202 -62c-18.667 -22 -33.667 -51.667 -45 -89s-17 -77.333 -17 -120c0 -48 7.33301 -92.333 22 -133s34.334 -71 59.001 -91
c17.333 -13.333 38.666 -22.666 63.999 -27.999s60.666 -8 105.999 -8h195zM458.004 432.997h-16c-46 0 -77.833 -11.833 -95.5 -35.5s-26.5 -54.5 -26.5 -92.5c0 -26 6.83301 -44.5 20.5 -55.5s36.5 -16.5 68.5 -16.5h20z" />
    <glyph glyph-name="A" unicode="A" horiz-adv-x="723" 
d="M4 0l276 667h163l276 -667h-166l-64 155h-254l-64 -155h-167zM362 507l-95 -233h190z" />
    <glyph glyph-name="B" unicode="B" horiz-adv-x="699" 
d="M68 0v667.001h377c76 0 132 -16.333 168 -49c32.667 -29.333 49 -71.333 49 -126c0 -34.667 -9 -66.834 -27 -96.501s-41.333 -50.5 -70 -62.5c64.667 -29.333 97 -81.333 97 -156c0 -58.667 -16.333 -102 -49 -130c-36 -31.333 -94.667 -47 -176 -47h-369zM210 393.001
h193.001c40 0 67.667 7.33301 83 22c12.667 12 19 32 19 60c0 26.667 -6.33301 45 -19 55c-14.667 12 -41.334 18 -80.001 18h-196v-155zM210.001 119.001h193c36.667 0 63 7 79 21s24 34.333 24 61c0 24.667 -8.66699 43 -26 55s-42 18 -74 18h-196v-155z" />
    <glyph glyph-name="C" unicode="C" horiz-adv-x="607" 
d="M574 119l0.000976562 -118.999h-232c-110 0 -189.167 26.5 -237.5 79.5s-72.5 137.167 -72.5 252.5c0 109.333 24.333 191.666 73 246.999c52 58.667 133 88 243 88h226v-119h-209c-60.667 0 -104.334 -13.667 -131.001 -41c-30 -31.333 -45 -85.333 -45 -162
c0 -82.667 13.333 -141 40 -175s73.667 -51 141 -51h204z" />
    <glyph glyph-name="D" unicode="D" horiz-adv-x="717" 
d="M68 667h283c119.333 0 205.333 -27 258 -81c50.667 -52 76 -136.667 76 -254c0 -118 -22.667 -201.667 -68 -251c-50 -54 -138.667 -81 -266 -81h-283v667zM210 548l-0.000976562 -429h141c64.667 0 111.334 19.667 140.001 59c25.333 34.667 38 86.334 38 155.001
c0 73.333 -12.667 126.666 -38 159.999c-27.333 36.667 -74 55 -140 55h-141z" />
    <glyph glyph-name="E" unicode="E" horiz-adv-x="612" 
d="M568 667l0.000976562 -119.001h-185c-76.667 0 -127 -11.667 -151 -35c-19.333 -18.667 -32.333 -59.334 -39 -122.001h375v-119h-375c5.33301 -57.333 22.166 -97.166 50.499 -119.499s76.833 -33.5 145.5 -33.5h179v-119h-185c-113.333 0 -197.333 21.667 -252 65
c-66 52.667 -99 143.334 -99 272.001c0 112 28.667 196.333 86 253c51.333 51.333 121.333 77 210 77h240z" />
    <glyph glyph-name="F" unicode="F" horiz-adv-x="636" 
d="M600 394l-0.000976562 -119.001h-397v-275h-142v388c0 112.667 32.333 190.334 97 233.001c46.667 30.667 117.334 46 212.001 46h230v-119h-212c-70.667 0 -119.167 -9 -145.5 -27s-39.5 -48.333 -39.5 -91v-36h397z" />
    <glyph glyph-name="G" unicode="G" horiz-adv-x="692" 
d="M312 396h327.998v-396h-298c-52.667 0 -93.667 3.66699 -123 11s-56.666 21 -81.999 41c-70 54.667 -105 147.667 -105 279c0 130 34.667 223 104 279c48 38 118.667 57 212 57h292v-119h-275c-63.333 0 -108.666 -15.667 -135.999 -47s-41 -83.666 -41 -156.999
c0 -43.333 4 -80.833 12 -112.5s20 -55.834 36 -72.501c26 -26.667 70.667 -40 134 -40h128v158h-186v119z" />
    <glyph glyph-name="H" unicode="H" horiz-adv-x="677" 
d="M609 667v-667h-142v275h-257v-275h-142v667h142v-273h257v273h142z" />
    <glyph glyph-name="I" unicode="I" horiz-adv-x="278" 
d="M68 0v667h142v-667h-142z" />
    <glyph glyph-name="J" unicode="J" horiz-adv-x="533" 
d="M15 0l-0.000976562 119h136c47.333 0 80 1.5 98 4.5s33.333 10 46 21s21.667 27 27 48s8 54.5 8 100.5v374h142v-374c0 -110.667 -22.167 -187.167 -66.5 -229.5s-124.166 -63.5 -239.499 -63.5h-151z" />
    <glyph glyph-name="K" unicode="K" horiz-adv-x="659" 
d="M210 667v-667h-142v667h142zM215 338l255 329h186l-278 -329l265 -338h-187z" />
    <glyph glyph-name="L" unicode="L" horiz-adv-x="533" 
d="M61 667h142v-374c0 -72.667 7.33301 -118 22 -136c20.667 -25.333 73 -38 157 -38h136v-119h-136c-127.333 0 -213.333 21.667 -258 65c-42 40.667 -63 116.667 -63 228v374z" />
    <glyph glyph-name="M" unicode="M" horiz-adv-x="890" 
d="M274 667l166 -521l175 521h207v-667h-135v501l-175 -501h-146l-165 501v-501h-135v667h208z" />
    <glyph glyph-name="N" unicode="N" horiz-adv-x="718" 
d="M203 489v-489h-135v667h181l266 -497v497h135v-667h-174z" />
    <glyph glyph-name="O" unicode="O" horiz-adv-x="723" 
d="M361 672c114 0 197.332 -28.6689 249.999 -86.002s79 -144.666 79 -261.999c0 -105.333 -26 -185.666 -78 -240.999c-54.667 -58 -135 -87 -241 -87c-113.333 0 -198.166 28.833 -254.499 86.5s-84.5 140.167 -84.5 247.5c0 116 26.333 202 79 258s136 84 250 84z
M361.999 558.998c-59.333 0 -102.667 -16.666 -130 -49.999c-29.333 -36 -44 -94 -44 -174c0 -78 14 -135.333 42 -172s72 -55 132 -55c59.333 0 102.833 18.167 130.5 54.5s41.5 93.166 41.5 170.499c0 78 -13.833 135.167 -41.5 171.5s-71.167 54.5 -130.5 54.5z" />
    <glyph glyph-name="P" unicode="P" horiz-adv-x="686" 
d="M210 233v-232.999h-142v667h333c99.333 0 170.333 -22.667 213 -68c32.667 -34.667 49 -84.334 49 -149.001c0 -62.667 -16.667 -113 -50 -151c-38.667 -44 -97 -66 -175 -66h-228zM210 352.001h192.999c39.333 0 66.5 8.16699 81.5 24.5s22.5 42.5 22.5 78.5
c0 32.667 -6.33301 55.667 -19 69c-15.333 16 -42.666 24 -81.999 24h-196v-196z" />
    <glyph glyph-name="Q" unicode="Q" horiz-adv-x="757" 
d="M730 119l0.00195312 -119h-250l-156 2c-56.667 0 -103.334 9.33301 -140.001 28s-68 46.334 -94 83.001c-38.667 56 -58 128.667 -58 218c0 130.667 33.667 222.667 101 276c24.667 20.667 57.167 36.667 97.5 48s83.833 17 130.5 17
c60.667 0 113.667 -8.83301 159 -26.5s80.666 -43.167 105.999 -76.5c19.333 -24.667 35 -58.334 47 -101.001s18 -85.667 18 -129c0 -86 -25 -159.333 -75 -220h114zM362.002 560c-115.333 0 -172.999 -72.001 -172.999 -216.001c0 -80 14 -138.667 42 -176s72 -56 132 -56
c59.333 0 102.666 18.333 129.999 55s41 94.667 41 174c0 64.667 -13.333 117.334 -40 158.001s-70.667 61 -132 61z" />
    <glyph glyph-name="R" unicode="R" horiz-adv-x="715" 
d="M210 253l0.00195312 -253.002h-142v667h326c101.333 0 174.333 -18.333 219 -55c36.667 -30 55 -73.667 55 -131c0 -100.667 -42.333 -165.667 -127 -195c40 -10.667 70.167 -31.167 90.5 -61.5s30.5 -71.5 30.5 -123.5c0 -29.333 1 -48.666 3 -57.999
s6.33301 -23.666 13 -42.999h-159c-4.66699 14 -8.16699 29.833 -10.5 47.5s-3.5 33.5 -3.5 47.5c-6.66699 60.667 -22.834 102.167 -48.501 124.5s-69.834 33.5 -132.501 33.5h-114zM210.002 371.998l199.001 -0.000976562c37.333 0 63.666 7.5 78.999 22.5
s23 38.167 23 69.5c0 28.667 -7 49.334 -21 62.001c-16 14.667 -43 22 -81 22h-199v-176z" />
    <glyph glyph-name="S" unicode="S" horiz-adv-x="695" 
d="M66 0l0.000976562 119.002h304c49.333 0 82.333 5.33301 99 16c22 13.333 33 33.666 33 60.999c0 33.333 -14.333 57 -43 71c-14 8 -38 12 -72 12h-123c-77.333 0 -133 14.667 -167 44c-42 36.667 -63 85.667 -63 147c0 42 10.667 80 32 114s49.333 57 84 69
c14.667 5.33301 32.334 9 53.001 11s50.667 3 90 3h330v-119h-298c-30.667 0 -50.167 -0.333008 -58.5 -1s-18.5 -2.33398 -30.5 -5.00098c-30 -7.33301 -45 -30 -45 -68c0 -32 12.667 -53.667 38 -65c10 -4.66699 20.167 -7.66699 30.5 -9s28.166 -2 53.499 -2h107
c50 0 89.167 -4 117.5 -12s52.5 -22.333 72.5 -43c14.667 -14.667 26.667 -35.667 36 -63s14 -55.333 14 -84c0 -35.333 -7.66699 -68.333 -23 -99s-36 -54 -62 -70c-16 -10 -36.833 -17 -62.5 -21s-62.834 -6 -111.501 -6h-335z" />
    <glyph glyph-name="T" unicode="T" horiz-adv-x="585" 
d="M218 548h-213v119h575v-119h-220v-548h-142v548z" />
    <glyph glyph-name="U" unicode="U" horiz-adv-x="703" 
d="M203 667v-400c0 -32.667 2.66699 -58 8 -76s15 -33.333 29 -46c28.667 -25.333 67 -38 115 -38c70 0 114.667 21.333 134 64c8 19.333 12 51.333 12 96v400h142v-393c0 -102.667 -24 -174 -72 -214c-26.667 -22 -57.667 -38.333 -93 -49s-77.333 -16 -126 -16
c-105.333 0 -182 24 -230 72c-23.333 24 -39.333 49.833 -48 77.5s-13 67.5 -13 119.5v403h142z" />
    <glyph glyph-name="V" unicode="V" horiz-adv-x="719" 
d="M717 667l-292 -667h-142l-281 667h160l196 -502l199 502h160z" />
    <glyph glyph-name="W" unicode="W" horiz-adv-x="1058" 
d="M160 667l150 -502l139 502h159l140 -502l150 502h146l-216 -667h-161l-138 482l-139 -482h-161l-216 667h147z" />
    <glyph glyph-name="X" unicode="X" horiz-adv-x="637" 
d="M232 337l-219 330h174l131 -219l142 219h172l-226 -330l226 -337h-167l-147 229l-144 -229h-169z" />
    <glyph glyph-name="Y" unicode="Y" horiz-adv-x="654" 
d="M250 292l-247 375h167l153 -260l161 260h168l-260 -380v-287h-142v292z" />
    <glyph glyph-name="Z" unicode="Z" horiz-adv-x="654" 
d="M458 548h-421v119h580v-123l-406 -425h406v-119h-580v116z" />
    <glyph glyph-name="bracketleft" unicode="[" horiz-adv-x="353" 
d="M319 758l-0.000976562 -107h-34c-38 0 -61.667 -4 -71 -12s-14 -29.667 -14 -65v-482c0 -34 4.66699 -55.333 14 -64s33 -13 71 -13h34v-107h-93c-39.333 0 -66.666 1.66699 -81.999 5s-30.333 11.166 -45 23.499s-24.667 26.833 -30 43.5s-8 41.334 -8 74.001v557
c0 32.667 2.66699 57.5 8 74.5s15 31.333 29 43s29.833 19.5 47.5 23.5s44.5 6 80.5 6h93z" />
    <glyph glyph-name="backslash" unicode="\" horiz-adv-x="533" 
d="M450 -92l-491 850h125l491 -850h-125z" />
    <glyph glyph-name="bracketright" unicode="]" horiz-adv-x="353" 
d="M34 758l93.001 -0.000976562c39.333 0 66.666 -1.66699 81.999 -5s30.333 -11.166 45 -23.499s24.667 -26.833 30 -43.5s8 -41.667 8 -75v-557c0 -32 -2.66699 -56.5 -8 -73.5s-15 -31.333 -29 -43s-29.833 -19.5 -47.5 -23.5s-44.5 -6 -80.5 -6h-93v107h34
c38 0 61.667 4 71 12s14 29.667 14 65v482c0 34 -4.66699 55.333 -14 64s-33 13 -71 13h-34v107z" />
    <glyph glyph-name="asciicircum" unicode="^" 
d="M151 349h-137l150 322h172l150 -322h-137l-99 218z" />
    <glyph glyph-name="underscore" unicode="_" 
d="M0 -39h500v-109h-500v109z" />
    <glyph glyph-name="grave" unicode="`" 
d="M97 675h118l92 -130h-86z" />
    <glyph glyph-name="a" unicode="a" horiz-adv-x="595" 
d="M402 296l0.00195312 9.00098c0 29.333 -7.33301 49.666 -22 60.999s-41.334 17 -80.001 17h-226v104h266c54 0 94.333 -8.66699 121 -26c50 -32 75 -94.333 75 -187v-274h-312c-58.667 0 -102.334 9 -131.001 27c-36 22.667 -54 61.667 -54 117
c0 49.333 14.5 87 43.5 113s74.167 39 135.5 39h184zM402.002 192.001h-177c-33.333 0 -50 -15 -50 -45c0 -15.333 5.5 -26.333 16.5 -33s29.5 -10 55.5 -10h155v88z" />
    <glyph glyph-name="b" unicode="b" horiz-adv-x="597" 
d="M200 487h119c86 0 150 -25.333 192 -76c34.667 -40.667 52 -94.334 52 -161.001c0 -98 -35.667 -169.333 -107 -214c-22 -13.333 -45.333 -22.666 -70 -27.999s-58.667 -8 -102 -8h-218v667h134v-180zM200 383v-279h99c39.333 0 70.333 12.667 93 38s34 60 34 104
c0 91.333 -42.333 137 -127 137h-99z" />
    <glyph glyph-name="c" unicode="c" horiz-adv-x="510" 
d="M472 487v-104.002h-160c-50 0 -86.167 -10.833 -108.5 -32.5s-33.5 -57.167 -33.5 -106.5c0 -47.333 12 -82.5 36 -105.5s64.333 -34.5 121 -34.5h145v-104h-183c-91.333 0 -158 23 -200 69c-37.333 40.667 -56 99.334 -56 176.001s17.333 134.334 52 173.001
c41.333 46 109.333 69 204 69h183z" />
    <glyph glyph-name="d" unicode="d" horiz-adv-x="592" 
d="M391 487v180h134v-667h-231c-48.667 -0 -86.667 4.33301 -114 13s-53.333 25 -78 49c-46 45.333 -69 107 -69 185c0 86 29.333 152 88 198c36 28 84 42 144 42h126zM391 104v279h-97c-39.333 0 -70 -12 -92 -36s-33 -57.333 -33 -100c0 -44.667 11 -79.667 33 -105
s52.667 -38 92 -38h97z" />
    <glyph glyph-name="e" unicode="e" horiz-adv-x="508" 
d="M463 296l-0.000976562 -104.001h-282c0 -32 9.66699 -54.667 29 -68s49 -20 89 -20h164v-104h-178c-85.333 0 -149.666 23.333 -192.999 70c-39.333 42.667 -59 102.667 -59 180c0 70.667 19 126.667 57 168c42.667 46 104.334 69 185.001 69h188v-104h-178
c-36.667 0 -62.334 -6.16699 -77.001 -18.5s-23.667 -35.166 -27 -68.499h282z" />
    <glyph glyph-name="f" unicode="f" horiz-adv-x="380" 
d="M106 383h-87.998v104h88v29c0 53.333 11.167 91.833 33.5 115.5s58.166 35.5 107.499 35.5h118v-104h-68c-20.667 0 -35.334 -4 -44.001 -12s-13 -22 -13 -42v-22h125v-104h-125v-383h-134v383z" />
    <glyph glyph-name="g" unicode="g" horiz-adv-x="599" 
d="M533 487l-0.00195312 -483c0 -54 -12.333 -96.667 -37 -128c-15.333 -18 -33.833 -30.667 -55.5 -38s-53.167 -11 -94.5 -11h-267v104h249c28 0 46.833 4 56.5 12s14.5 24 14.5 48v9h-123c-39.333 0 -71.666 4 -96.999 12s-48.666 22 -69.999 42
c-48.667 45.333 -73 108.666 -73 189.999c0 92.667 29.667 159.667 89 201c20 14.667 42.5 25.334 67.5 32.001s55.167 10 90.5 10h250zM398.998 383h-111c-76.667 0 -115 -46.667 -115 -140c0 -92.667 40.667 -139 122 -139h104v279z" />
    <glyph glyph-name="h" unicode="h" horiz-adv-x="597" 
d="M200 667v-180.001h137c73.333 0 126 -16.667 158 -50c28 -29.333 42 -73.666 42 -132.999v-304h-134v277c0 43.333 -6.16699 71.833 -18.5 85.5s-37.833 20.5 -76.5 20.5h-108v-383h-134v667h134z" />
    <glyph glyph-name="i" unicode="i" horiz-adv-x="266" 
d="M66 487h134v-487h-134v487zM66 537v130h134v-130h-134z" />
    <glyph glyph-name="j" unicode="j" horiz-adv-x="298" 
d="M232 487v-447.999c0 -47.333 -4.66699 -84.333 -14 -111s-25 -48.334 -47 -65.001c-32.667 -24 -78 -36 -136 -36h-59v102h34c37.333 0 62 7.33301 74 22c5.33301 6.66699 9 15.167 11 25.5s3 27.833 3 52.5v458h134zM98 541.001v126h134v-126h-134z" />
    <glyph glyph-name="k" unicode="k" horiz-adv-x="544" 
d="M200 667l-0.000976562 -373l179 193h150l-190 -193h37c44.667 0 76.334 -13.5 95.001 -40.5s28 -75.5 28 -145.5v-108h-134v114c0 30 -5 50.333 -15 61s-29.667 16 -59 16h-91v-191h-134v667h134z" />
    <glyph glyph-name="l" unicode="l" horiz-adv-x="266" 
d="M200 0h-134v667h134v-667z" />
    <glyph glyph-name="m" unicode="m" horiz-adv-x="822" 
d="M66 487l492.001 -0.000976562c79.333 0 134.666 -16.667 165.999 -50c26 -27.333 39 -69.666 39 -126.999v-310h-134v289c0 36 -5.66699 60.667 -17 74s-32.333 20 -63 20h-71v-383h-134v383h-144v-383h-134v487z" />
    <glyph glyph-name="n" unicode="n" horiz-adv-x="578" 
d="M66 487h258.001c74.667 0 127 -16.667 157 -50c25.333 -28 38 -73.667 38 -137v-300h-134v315c0 24 -5.33301 41.333 -16 52s-28.334 16 -53.001 16h-116v-383h-134v487z" />
    <glyph glyph-name="o" unicode="o" horiz-adv-x="582" 
d="M290 494c84.667 0 149.334 -23.666 194.001 -70.999c42.667 -44.667 64 -106.334 64 -185.001c0 -75.333 -23.333 -135 -70 -179s-110 -66 -190 -66c-80.667 0 -143.334 22 -188.001 66s-67 106.667 -67 188c0 74 23.333 133.667 70 179s109 68 187 68zM291 391.001
c-80.667 0 -121 -49.667 -121 -149c0 -97.333 40.667 -146 122 -146c79.333 0 119 49.333 119 148c0 98 -40 147 -120 147z" />
    <glyph glyph-name="p" unicode="p" horiz-adv-x="590" 
d="M66 487h264c72 0 127.833 -21.833 167.5 -65.5s59.5 -105.5 59.5 -185.5c0 -73.333 -19.667 -130.333 -59 -171c-41.333 -43.333 -101.333 -65 -180 -65h-118v-183h-134v670zM200 383v-279h82c92 0 138 47.333 138 142c0 43.333 -11 77 -33 101s-53.667 36 -95 36h-92z
" />
    <glyph glyph-name="q" unicode="q" horiz-adv-x="596" 
d="M530 487v-670h-134v183h-129c-74 0 -131.5 22.167 -172.5 66.5s-61.5 101.5 -61.5 171.5c0 92.667 29 161.667 87 207c20.667 16 43 27 67 33s58.333 9 103 9h240zM396 383h-98c-85.333 0 -128 -46.333 -128 -139c0 -93.333 44.333 -140 133 -140h93v279z" />
    <glyph glyph-name="r" unicode="r" horiz-adv-x="468" 
d="M66 487h198c40.667 0 72 -2.66699 94 -8s40.5 -14.833 55.5 -28.5s25.5 -30.334 31.5 -50.001s9 -48.167 9 -85.5v-48h-129v26c0 34.667 -6 58.334 -18 71.001s-34.667 19 -68 19h-39v-383h-134v487z" />
    <glyph glyph-name="s" unicode="s" horiz-adv-x="549" 
d="M489 487l0.00195312 -104.001h-238c-30 0 -49.833 -2.83301 -59.5 -8.5s-14.5 -17.167 -14.5 -34.5c0 -18 7.66699 -31.667 23 -41c8.66699 -4.66699 30 -7 64 -7h79c53.333 0 94.666 -12 123.999 -36s44 -58.333 44 -103c0 -30.667 -7.33301 -59.167 -22 -85.5
s-33.667 -44.5 -57 -54.5c-18 -8.66699 -54.333 -13 -109 -13h-277v104h238l63 2c22 3.33301 33 16.333 33 39c0 22 -8.33301 36 -25 42c-7.33301 4 -26 6 -56 6h-82c-32 0 -56.833 2 -74.5 6s-34.334 12.167 -50.001 24.5s-28.5 29.5 -38.5 51.5s-15 45.333 -15 70
c0 50.667 18.667 90.334 56 119.001c11.333 8.66699 24.833 14.667 40.5 18s38.167 5 67.5 5h286z" />
    <glyph glyph-name="t" unicode="t" horiz-adv-x="385" 
d="M101 487v180h134v-180h124v-104h-124v-177c0 -24.667 0.666992 -42.167 2 -52.5s4.33301 -18.833 9 -25.5c11.333 -16 31.333 -24 60 -24h53v-104h-97c-54 -0 -93.333 12.333 -118 37c-16.667 15.333 -28 33.5 -34 54.5s-9 51.5 -9 91.5v200h-85v104h85z" />
    <glyph glyph-name="u" unicode="u" horiz-adv-x="584" 
d="M383 104v383.001h134v-487h-263c-39.333 0 -68.833 2.66699 -88.5 8s-38.167 15.666 -55.5 30.999c-34 32 -51 81.333 -51 148v300h134v-313c0 -46.667 21.333 -70 64 -70h126z" />
    <glyph glyph-name="v" unicode="v" horiz-adv-x="561" 
d="M277 152l136 335h142l-210 -487h-144l-194 487h146z" />
    <glyph glyph-name="w" unicode="w" horiz-adv-x="822" 
d="M344 104l0.000976562 383h134v-383h144v383h134v-487h-512c-66.667 0 -115.334 17.667 -146.001 53c-26 30 -39 71.333 -39 124v310h134v-309c0 -26 5.83301 -44.833 17.5 -56.5s32.5 -17.5 62.5 -17.5h71z" />
    <glyph glyph-name="x" unicode="x" horiz-adv-x="525" 
d="M187 241l-175 246h149l103 -144l100 144h157l-182 -246l182 -241h-157l-100 139l-103 -139h-157z" />
    <glyph glyph-name="y" unicode="y" horiz-adv-x="574" 
d="M373 104l-0.00195312 383h134v-477c0 -58.667 -13.333 -102 -40 -130c-33.333 -35.333 -89.666 -53 -168.999 -53h-239v104h239c24.667 0 42.334 3 53.001 9c14 8 21 22 21 42l1 18h-129c-68 -0 -118 20.333 -150 61c-23.333 30 -35 68 -35 114v312h134v-259
c0 -51.333 4.5 -84.833 13.5 -100.5s27.833 -23.5 56.5 -23.5h110z" />
    <glyph glyph-name="z" unicode="z" horiz-adv-x="527" 
d="M312 383h-281v104h459v-101l-281 -282h281v-104h-459v101z" />
    <glyph glyph-name="braceleft" unicode="{" horiz-adv-x="380" 
d="M227 555l0.00292969 -98.001c0 -33.333 -4.33301 -59.166 -13 -77.499s-24.334 -33.833 -47.001 -46.5c22 -12.667 37.5 -28.334 46.5 -47.001s13.5 -44.334 13.5 -77.001v-98c0 -36 0.333008 -57.167 1 -63.5s4 -12.5 10 -18.5c7.33301 -9.33301 23.666 -14 48.999 -14
h59v-107h-68c-46 0 -79.5 2.33301 -100.5 7s-39.167 14.334 -54.5 29.001c-23.333 22 -35 58.333 -35 109v144c0 30 -3.5 51.5 -10.5 64.5s-19.5 21.5 -37.5 25.5v92c18 4 30.5 12.667 37.5 26s10.5 34.666 10.5 63.999v144c0 56.667 15.667 96.334 47 119.001
c14.667 10 31.167 16.833 49.5 20.5s44.166 5.5 77.499 5.5h84v-107h-59c-26 0 -42.167 -4.16699 -48.5 -12.5s-9.83301 -19.166 -10.5 -32.499s-1 -30.333 -1 -51z" />
    <glyph glyph-name="bar" unicode="|" 
d="M172 667h155v-834h-155v834z" />
    <glyph glyph-name="braceright" unicode="}" horiz-adv-x="380" 
d="M153 111l0.000976562 97.998c0 34 4.33301 60 13 78s24.334 33.333 47.001 46c-22.667 13.333 -38.334 28.833 -47.001 46.5s-13 43.5 -13 77.5v98v23c0 24 -0.333008 38 -1 42s-3.66699 9.33301 -9 16c-7.33301 10 -24 15 -50 15h-59v107h84c40 0 69.333 -2.33301 88 -7
s35.667 -14.334 51 -29.001c23.333 -22 35 -58.333 35 -109v-144c0 -30 3.5 -51.5 10.5 -64.5s19.5 -21.5 37.5 -25.5v-92c-18 -4 -30.5 -12.667 -37.5 -26s-10.5 -34.666 -10.5 -63.999v-144c0 -57.333 -15.667 -96.666 -47 -117.999c-16 -11.333 -33 -18.666 -51 -21.999
s-48.667 -5 -92 -5h-68v107h59c25.333 0 41.666 4.66699 48.999 14c5.33301 5.33301 8.5 12.5 9.5 21.5s1.5 29.167 1.5 60.5z" />
    <glyph glyph-name="asciitilde" unicode="~" horiz-adv-x="667" 
d="M168 550l-74.9961 62.999c36.667 92 86.667 138 150 138c12.667 0 26.667 -2.16699 42 -6.5s38.666 -13.166 69.999 -26.499c25.333 -10.667 42.333 -17.5 51 -20.5s17 -4.5 25 -4.5c13.333 0 25.333 4.5 36 13.5s22.334 24.5 35.001 46.5l75 -62
c-20.667 -50 -42.834 -85.167 -66.501 -105.5s-53.834 -30.5 -90.501 -30.5c-17.333 0 -34.333 3 -51 9c-4 1.33301 -23.333 9.5 -58 24.5s-59.334 22.5 -74.001 22.5c-12.667 0 -24.334 -4.66699 -35.001 -14s-22 -25 -34 -47z" />
    <glyph glyph-name="DEL" horiz-adv-x="582" 
d="M433 463l26.998 31.001h102l-71 -80c38.667 -49.333 58 -108.333 58 -177c0 -76 -23 -135.667 -69 -179s-109.667 -65 -191 -65c-51.333 0 -97.666 10.333 -138.999 31l-28 -31h-102l69 78c-37.333 43.333 -56 101.666 -56 174.999c0 75.333 23.167 135.5 69.5 180.5
s108.833 67.5 187.5 67.5c54.667 0 102.334 -10.333 143.001 -31zM179.998 169.001l172 210c-16.667 8.66699 -37.667 13 -63 13c-79.333 0 -119 -50 -119 -150c0 -28 3.33301 -52.333 10 -73zM400.998 319.001l-171 -210c18 -9.33301 38.667 -14 62 -14
c80 0 120 49.667 120 149c0 28.667 -3.66699 53.667 -11 75z" />
    <glyph glyph-name="c128" horiz-adv-x="559" 
d="M281 583c19.333 0 36 -7 50 -21s21 -31 21 -51s-7 -37 -21 -51s-31 -21 -51 -21s-37 7 -51 21s-21 31 -21 51s7 37 21 51s31.333 21 52 21zM281 241c19.333 0 36 -7 50 -21s21 -31 21 -51s-7 -37 -21 -51s-31 -21 -51 -21s-37 7 -51 21s-21 31 -21 51s7 37 21 51
s31.333 21 52 21zM37 395h486v-109h-486v109z" />
    <glyph glyph-name="c128" unicode="&#x402;" horiz-adv-x="559" 
d="M281 583c19.333 0 36 -7 50 -21s21 -31 21 -51s-7 -37 -21 -51s-31 -21 -51 -21s-37 7 -51 21s-21 31 -21 51s7 37 21 51s31.333 21 52 21zM281 241c19.333 0 36 -7 50 -21s21 -31 21 -51s-7 -37 -21 -51s-31 -21 -51 -21s-37 7 -51 21s-21 31 -21 51s7 37 21 51
s31.333 21 52 21zM37 395h486v-109h-486v109z" />
    <glyph glyph-name="c129" horiz-adv-x="723" 
d="M182 35l-31.001 -38.999h-119l75 94c-50 60 -75 140 -75 240c0 131.333 33.667 223.666 101 276.999c24.667 20.667 57.167 36.667 97.5 48s83.833 17 130.5 17c68.667 0 129 -12.333 181 -37l29 36h119l-73 -92c48.667 -58 73 -142 73 -252
c0 -124 -34.333 -213.667 -103 -269c-52 -41.333 -123.667 -62 -215 -62c-69.333 0 -132.666 13 -189.999 39zM515.999 461.001l-250 -330.001c26.667 -15.333 59.334 -23 98.001 -23c58 0 100.833 18.5 128.5 55.5s41.5 94.5 41.5 172.5
c0 26.667 -1.33301 49.334 -4 68.001s-7.33398 37.667 -14.001 57zM206.999 206l250 330c-26.667 15.333 -59 23 -97 23c-66 0 -113 -22.333 -141 -67c-20.667 -34 -31 -86 -31 -156c0 -52 6.33301 -95.333 19 -130z" />
    <glyph glyph-name="c129" unicode="&#x403;" horiz-adv-x="723" 
d="M182 35l-31.001 -38.999h-119l75 94c-50 60 -75 140 -75 240c0 131.333 33.667 223.666 101 276.999c24.667 20.667 57.167 36.667 97.5 48s83.833 17 130.5 17c68.667 0 129 -12.333 181 -37l29 36h119l-73 -92c48.667 -58 73 -142 73 -252
c0 -124 -34.333 -213.667 -103 -269c-52 -41.333 -123.667 -62 -215 -62c-69.333 0 -132.666 13 -189.999 39zM515.999 461.001l-250 -330.001c26.667 -15.333 59.334 -23 98.001 -23c58 0 100.833 18.5 128.5 55.5s41.5 94.5 41.5 172.5
c0 26.667 -1.33301 49.334 -4 68.001s-7.33398 37.667 -14.001 57zM206.999 206l250 330c-26.667 15.333 -59 23 -97 23c-66 0 -113 -22.333 -141 -67c-20.667 -34 -31 -86 -31 -156c0 -52 6.33301 -95.333 19 -130z" />
    <glyph glyph-name="c157" horiz-adv-x="559" 
d="M50 188l152 152l-152 152l77 78l152 -153l152 153l78 -78l-152 -152l152 -152l-78 -77l-152 152l-152 -152z" />
    <glyph glyph-name="c157" unicode="&#x45c;" horiz-adv-x="559" 
d="M50 188l152 152l-152 152l77 78l152 -153l152 153l78 -78l-152 -152l152 -152l-78 -77l-152 152l-152 -152z" />
    <glyph glyph-name="nonbreakingspace" unicode="&#xa0;" horiz-adv-x="972" 
d="M831 721c0 -5.33301 -2.33301 -8 -7 -8s-7 2.66699 -7 8c0 6.66699 2.33301 10 7 10s7 -3.33301 7 -10zM697 629c0 -8 -3.33301 -12 -10 -12c-8 0 -12 4 -12 12c0 10.667 3.66699 16 11 16s11 -5.33301 11 -16zM787 545c4.66699 -8 3.33398 -14.001 -3.99902 -18.001
c-3.33301 -2 -6.33301 -3 -9 -3c-4 0 -7 1.83301 -9 5.5s-3 6.83398 -3 9.50098c0 4.66699 2 8 6 10c7.33301 5.33301 13.666 4 18.999 -4zM365 807.999c0 -14.667 -7.33301 -22 -22 -22c-13.333 0 -20 7.33301 -20 22c0 6.66699 2.16699 12.167 6.5 16.5
s9.83301 6.5 16.5 6.5c12.667 0 19 -7.66699 19 -23zM871 -14.001l-59.999 98.9932l-60 -82l-60 82l-63 -82l-61 85l-55 -85l-65 85l-55 -85l-65 82l-55 -82l-94 80c-26.667 34.667 -40 72.667 -40 114c0 65.333 23.333 119 70 161s106.667 63 180 63
c2.66699 4 4 7.33301 4 10c0 8 -18.667 22.667 -56 44c-44.667 25.333 -86.334 38 -125.001 38c-11.333 0 -30.333 -1 -57 -3c-62 -4.66699 -95.333 -7 -100 -7c-0.666992 4.66699 -1.66699 8 -3 10c-0.666992 0 -1.33398 0.333008 -2.00098 1c0 9.33301 8.5 17.333 25.5 24
s43.167 10 78.5 10c51.333 0 90 -4.5 116 -13.5s67.333 -33.5 124 -73.5l1 21c-0.666992 7.33301 -2 13.666 -4 18.999c-5.33301 14.667 -16 31.334 -32 50.001c-26.667 30.667 -56 51.334 -88 62.001c-20 6.66699 -44 10 -72 10c-9.33301 0 -19.666 0.166992 -30.999 0.5
s-19 5.83301 -23 16.5c0 10 3.33301 15.5 10 16.5s15.667 1.5 27 1.5c63.333 0 112.333 -14 147 -42c14.667 -12 37 -40.667 67 -86c3.33301 4.66699 5 9.66699 5 15c-8.66699 25.333 -16.334 45 -23.001 59c-21.333 43.333 -46.666 74.333 -75.999 93
c-16.667 10.667 -56.334 24.334 -119.001 41.001c-19.333 5.33301 -29 12 -29 20c0 10.667 4 16 12 16c48 0 95.5 -17.167 142.5 -51.5s80.833 -84.5 101.5 -150.5c20.667 41.333 48.334 79 83.001 113c47.333 47.333 93.666 71 138.999 71h19
c5.33301 -1.33301 9 -4.33301 11 -9c6 -11.333 1.66699 -18.666 -13 -21.999c-44.667 0 -89.667 -18 -135 -54c-42.667 -34 -74.667 -75.333 -96 -124l-1 -34c15.333 24.667 41.333 51.334 78 80.001c48.667 38 93 57 133 57c11.333 0 17.333 -3.33301 18 -10
c0 -9.33301 -14 -18.333 -42 -27c-76 -23.333 -138.333 -66.666 -187 -129.999l-2 -25c60.667 62.667 138.667 94 234 94c18.667 0 31.834 -0.5 39.501 -1.5s13.167 -3.5 16.5 -7.5c1.33301 -5.33301 3 -10.666 5 -15.999c-45.333 -0.666992 -91 -5.33398 -137 -14.001
c-92 -17.333 -142 -47.333 -150 -90c30.667 -2 61.667 -3.66699 93 -5c38.667 -5.33301 74.667 -19.666 108 -42.999c40.667 -29.333 72.667 -58.666 96 -87.999l49 -78l51 55c34.667 38 52 58 52 60v-338zM74.001 628.992
c4.66699 -8.66699 3.33105 -14.999 -4.00195 -18.999c-2.66699 -2 -6 -2.66699 -10 -2s-7 2.66699 -9 6c-1.33301 2 -1.66602 5.16699 -0.999023 9.5s2.33398 7.16602 5.00098 8.49902c8 4.66699 14.333 3.66699 19 -3zM216.998 434.993l-12 -14c-4 4 -7.66699 6 -11 6v13z
M391.998 170.993c5.33301 8 7.99902 18.335 7.99902 31.002c0 15.333 -4.66699 27.666 -14 36.999c-11.333 11.333 -24.666 17 -39.999 17c-14 0 -27 -5.33301 -39 -16c-10 -11.333 -15 -24.333 -15 -39s5 -27.334 15 -38.001s23 -16 39 -16c8.66699 0 16 1.33301 22 4
l-16 20c-10 -1.33301 -18.5 1.16699 -25.5 7.5s-10.5 13.833 -10.5 22.5c0 7.33301 3.33301 14.333 10 21c6.66699 5.33301 13.667 8 21 8c8.66699 0 15.667 -3 21 -9c5.33301 -4.66699 8 -10.667 8 -18c0 -2 -0.666992 -5.66699 -2 -11z" />
    <glyph glyph-name="exclamdown" unicode="&#xa1;" horiz-adv-x="274" 
d="M208 0h-142v503h142v-503zM208 554h-142v113h142v-113z" />
    <glyph glyph-name="exclamdown" unicode="&#x40e;" horiz-adv-x="274" 
d="M208 0h-142v503h142v-503zM208 554h-142v113h142v-113z" />
    <glyph glyph-name="cent" unicode="&#xa2;" horiz-adv-x="511" 
d="M366 449v-278h106v-104h-106v-98h-76v98c-47.333 0 -83.833 3.66699 -109.5 11s-49.5 21.333 -71.5 42c-50.667 47.333 -76 111 -76 191c0 52 9.5 96.833 28.5 134.5s45.333 65 79 82s83.5 25.5 149.5 25.5v98h76v-98h106v-104h-106zM290 172v275.999
c-42 0 -72.5 -11.167 -91.5 -33.5s-28.5 -57.166 -28.5 -104.499c0 -84.667 40 -130.667 120 -138z" />
    <glyph glyph-name="cent" unicode="&#x45e;" horiz-adv-x="511" 
d="M366 449v-278h106v-104h-106v-98h-76v98c-47.333 0 -83.833 3.66699 -109.5 11s-49.5 21.333 -71.5 42c-50.667 47.333 -76 111 -76 191c0 52 9.5 96.833 28.5 134.5s45.333 65 79 82s83.5 25.5 149.5 25.5v98h76v-98h106v-104h-106zM290 172v275.999
c-42 0 -72.5 -11.167 -91.5 -33.5s-28.5 -57.166 -28.5 -104.499c0 -84.667 40 -130.667 120 -138z" />
    <glyph glyph-name="sterling" unicode="&#xa3;" horiz-adv-x="642" 
d="M572 667l0.000976562 -118h-188c-34.667 0 -58.167 -1.16699 -70.5 -3.5s-23.5 -7.5 -33.5 -15.5c-20.667 -17.333 -31 -52.666 -31 -105.999v-53h220v-83h-220v-170h366v-118h-562v118h54v170h-54v83h54v13c0 65.333 4.16699 113.666 12.5 144.999s24.166 58 47.499 80
c32.667 30 73 48 121 54c11.333 1.33301 21.5 2.33301 30.5 3s23.5 1 43.5 1h22h188z" />
    <glyph glyph-name="sterling" unicode="&#x408;" horiz-adv-x="642" 
d="M572 667l0.000976562 -118h-188c-34.667 0 -58.167 -1.16699 -70.5 -3.5s-23.5 -7.5 -33.5 -15.5c-20.667 -17.333 -31 -52.666 -31 -105.999v-53h220v-83h-220v-170h366v-118h-562v118h54v170h-54v83h54v13c0 65.333 4.16699 113.666 12.5 144.999s24.166 58 47.499 80
c32.667 30 73 48 121 54c11.333 1.33301 21.5 2.33301 30.5 3s23.5 1 43.5 1h22h188z" />
    <glyph glyph-name="currency" unicode="&#xa4;" horiz-adv-x="649" 
d="M464 561l79 79.001l79 -79l-78 -78c25.333 -42.667 38 -90.334 38 -143.001c0 -49.333 -11.667 -95.333 -35 -138l79 -79l-79 -80l-79 79c-42 -21.333 -90 -32 -144 -32c-53.333 0 -101 10.667 -143 32l-79 -79l-79 79l79 80c-23.333 42 -35 88 -35 138
c0 28.667 2.83301 53.667 8.5 75s15.167 43.333 28.5 66l-81 80l80 80l81 -81c41.333 20.667 88 31 140 31c51.333 0 98 -10 140 -30zM326 489.001c-81.333 0 -122 -49.333 -122 -148c0 -99.333 40.333 -149 121 -149c80 0 120 49.667 120 149
c0 98.667 -39.667 148 -119 148z" />
    <glyph glyph-name="yen" unicode="&#xa5;" horiz-adv-x="629" 
d="M217 323l-214 344h166l140 -261l147 261h169l-224 -344h134v-80h-157v-53h137v-80h-137v-110h-142v110h-137v80h137v53h-157v80h138z" />
    <glyph glyph-name="yen" unicode="&#x490;" horiz-adv-x="629" 
d="M217 323l-214 344h166l140 -261l147 261h169l-224 -344h134v-80h-157v-53h137v-80h-137v-110h-142v110h-137v80h137v53h-157v80h138z" />
    <glyph glyph-name="brokenbar" unicode="&#xa6;" 
d="M172 667h155v-353h-155v353zM172 153h155v-320h-155v320z" />
    <glyph glyph-name="section" unicode="&#xa7;" horiz-adv-x="624" 
d="M346 85l-109.999 0.00292969c-39.333 0 -70.333 2.66699 -93 8s-41.667 14.666 -57 27.999c-32.667 28.667 -49 71 -49 127c0 54.667 17.333 96.334 52 125.001c-34.667 29.333 -52 71.666 -52 126.999c0 34 7.83301 64.667 23.5 92s36.5 46.666 62.5 57.999
c14.667 7.33301 30.667 12 48 14s48.666 3 93.999 3h295v-104h-267c-44 0 -73.333 -4.66699 -88 -14c-19.333 -13.333 -29 -31 -29 -53c0 -46 34 -69 102 -69h108c39.333 0 69 -2.66699 89 -8s39.333 -16 58 -32c36.667 -32.667 55 -75.334 55 -128.001
c0 -44 -16 -84.333 -48 -121c32 -30 48 -69.333 48 -118c0 -38.667 -9.33301 -72.834 -28 -102.501s-43.667 -50.167 -75 -61.5c-14.667 -4.66699 -29 -7.66699 -43 -9s-41 -2 -81 -2h-291v104h262h19c20 0 32 0.333008 36 1s11.667 2.33398 23 5.00098
c26.667 6.66699 40 27.334 40 62.001c0 29.333 -10.667 48.666 -32 57.999c-8.66699 4 -17.667 6.66699 -27 8s-24.333 2 -45 2zM345.001 323.003l-53 0.000976562c-42.667 0 -70.667 -3.33301 -84 -10c-21.333 -10.667 -32 -29.667 -32 -57
c0 -24 7.83301 -41.167 23.5 -51.5s41.5 -15.5 77.5 -15.5h68c28.667 0 49.667 1.66699 63 5c27.333 7.33301 41 27.666 41 60.999c0 25.333 -7.66699 43 -23 53s-42.333 15 -81 15z" />
    <glyph glyph-name="dieresis" unicode="&#xa8;" horiz-adv-x="615" 
d="M516 820v-110h-107v110h107zM330 820v-110h-107v110h107zM568 667l0.000976562 -119.001h-185c-76.667 0 -127 -11.667 -151 -35c-19.333 -18.667 -32.333 -59.334 -39 -122.001h375v-119h-375c5.33301 -57.333 22.166 -97.166 50.499 -119.499s76.833 -33.5 145.5 -33.5
h179v-119h-185c-113.333 0 -197.333 21.667 -252 65c-66 52.667 -99 143.334 -99 272.001c0 112 28.667 196.333 86 253c51.333 51.333 121.333 77 210 77h240z" />
    <glyph glyph-name="dieresis" unicode="&#x401;" horiz-adv-x="615" 
d="M516 820v-110h-107v110h107zM330 820v-110h-107v110h107zM568 667l0.000976562 -119.001h-185c-76.667 0 -127 -11.667 -151 -35c-19.333 -18.667 -32.333 -59.334 -39 -122.001h375v-119h-375c5.33301 -57.333 22.166 -97.166 50.499 -119.499s76.833 -33.5 145.5 -33.5
h179v-119h-185c-113.333 0 -197.333 21.667 -252 65c-66 52.667 -99 143.334 -99 272.001c0 112 28.667 196.333 86 253c51.333 51.333 121.333 77 210 77h240z" />
    <glyph glyph-name="copyright" unicode="&#xa9;" horiz-adv-x="769" 
d="M390 677c93.333 0 173.501 -33.833 240.501 -101.5s100.5 -148.5 100.5 -242.5c0 -94.667 -33.833 -175.5 -101.5 -242.5s-148.834 -100.5 -243.501 -100.5c-96 0 -177.833 33.5 -245.5 100.5s-101.5 147.833 -101.5 242.5c0 96 34 177.333 102 244s151 100 249 100z
M389.001 612c-78 0 -144 -26.999 -198 -80.999s-81 -120 -81 -198c0 -76 27 -141.333 81 -196s118.667 -82 194 -82c76 0 140.833 27.167 194.5 81.5s80.5 119.833 80.5 196.5c0 75.333 -26.667 140.666 -80 195.999s-117 83 -191 83zM543.001 217.001v-73h-147
c-35.333 0 -63.333 2.66699 -84 8s-39 15 -55 29c-38 32 -57 82.667 -57 152c0 43.333 8 80 24 110s38.333 51 67 63s65 18 109 18h143v-73h-133c-38 0 -65.167 -8.5 -81.5 -25.5s-24.5 -45.167 -24.5 -84.5c0 -45.333 8 -77.333 24 -96s44.333 -28 85 -28h130z" />
    <glyph glyph-name="ordfeminine" unicode="&#xaa;" horiz-adv-x="395" 
d="M160 448l100 0.000976562c0 17.333 -4 29 -12 35s-24.333 9 -49 9h-146v68h146c39.333 0 66.5 -2 81.5 -6s28.833 -13 41.5 -27c19.333 -20 29 -51.667 29 -95v-165h-181c-34.667 0 -57.5 0.666992 -68.5 2s-21.833 5.66602 -32.5 12.999c-25.333 16.667 -38 41 -38 73
c0 20.667 5.33301 39 16 55s24 26.333 40 31s40.333 7 73 7zM260 380.001l-94 -0.000976562l-26 -1c-10.667 -3.33301 -16 -10.666 -16 -21.999c0 -14.667 14 -22 42 -22h94v45z" />
    <glyph glyph-name="ordfeminine" unicode="&#x404;" horiz-adv-x="395" 
d="M160 448l100 0.000976562c0 17.333 -4 29 -12 35s-24.333 9 -49 9h-146v68h146c39.333 0 66.5 -2 81.5 -6s28.833 -13 41.5 -27c19.333 -20 29 -51.667 29 -95v-165h-181c-34.667 0 -57.5 0.666992 -68.5 2s-21.833 5.66602 -32.5 12.999c-25.333 16.667 -38 41 -38 73
c0 20.667 5.33301 39 16 55s24 26.333 40 31s40.333 7 73 7zM260 380.001l-94 -0.000976562l-26 -1c-10.667 -3.33301 -16 -10.666 -16 -21.999c0 -14.667 14 -22 42 -22h94v45z" />
    <glyph glyph-name="guillemotleft" unicode="&#xab;" horiz-adv-x="401" 
d="M175 408v-119l-70 -49l70 -47v-119l-133 105v121zM351 408v-119l-70 -49l70 -47v-119l-133 105v121z" />
    <glyph glyph-name="logicalnot" unicode="&#xac;" 
d="M315 0v156h-282v135h433v-291h-151z" />
    <glyph glyph-name="minus" unicode="&#xad;" horiz-adv-x="559" 
d="M37 395h486v-109h-486v109z" />
    <glyph glyph-name="registered" unicode="&#xae;" horiz-adv-x="769" 
d="M390 677c94 0 174.334 -33.667 241.001 -101s100 -148.333 100 -243s-33.833 -175.5 -101.5 -242.5s-148.834 -100.5 -243.501 -100.5c-96 0 -177.833 33.5 -245.5 100.5s-101.5 147.833 -101.5 242.5c0 96 34 177.333 102 244s151 100 249 100zM389.001 612
c-78 0 -144 -26.999 -198 -80.999s-81 -120 -81 -198c0 -76 27 -141.333 81 -196s118.667 -82 194 -82c76 0 140.833 27.167 194.5 81.5s80.5 119.833 80.5 196.5c0 75.333 -26.667 140.666 -80 195.999s-117 83 -191 83zM312.001 288.001l-0.00195312 -142h-96v380h175
c61.333 0 104 -7.33301 128 -22c32 -20 48 -48.333 48 -85c0 -56 -24 -92.333 -72 -109c45.333 -14 68 -48.667 68 -104l4.5 -39.5c0.333008 -3 2.83301 -9.83301 7.5 -20.5h-108l-3 10l-4 20l-3 26c-3.33301 33.333 -12.666 56 -27.999 68s-42.666 18 -81.999 18h-35z
M311.999 362.001l88 0.000976562c22.667 0 38.667 3.66699 48 11s14 19.666 14 36.999c0 29.333 -20.667 44 -62 44h-88v-92z" />
    <glyph glyph-name="macron" unicode="&#xaf;" 
d="M409 633v-67h-317v67h317z" />
    <glyph glyph-name="macron" unicode="&#x407;" 
d="M409 633v-67h-317v67h317z" />
    <glyph glyph-name="degree" unicode="&#xb0;" horiz-adv-x="385" 
d="M192 671c42 0 78.002 -14.6689 108.002 -44.002s45 -64.666 45 -105.999s-14.833 -76.833 -44.5 -106.5s-65.834 -44.5 -108.501 -44.5s-78.834 14.833 -108.501 44.5s-44.5 65.834 -44.5 108.501c0 40 15 74.667 45 104s66 44 108 44zM192.002 595.998
c-20.667 0 -38.333 -7 -53 -21s-22 -31.667 -22 -53c0 -20.667 7.16699 -38.167 21.5 -52.5s31.833 -21.5 52.5 -21.5s38.167 7.16699 52.5 21.5s21.5 31.833 21.5 52.5c0 20 -7 37.333 -21 52s-31.333 22 -52 22z" />
    <glyph glyph-name="plusminus" unicode="&#xb1;" horiz-adv-x="559" 
d="M37 460h187v178h113v-178h186v-109h-186v-178h-113v178h-187v109zM37 137h486v-109h-486v109z" />
    <glyph glyph-name="twosuperior" unicode="&#xb2;" horiz-adv-x="474" 
d="M147 343l274 0.000976562v-76h-370v108c0 46 12.333 80 37 102c10 10 22.5 17 37.5 21s36.5 6 64.5 6h68c46 0 69 14 69 42c0 30 -23 45 -69 45h-200v76h219c56.667 0 95.667 -9.33301 117 -28c12 -10 21.333 -22.833 28 -38.5s10 -32.834 10 -51.501
c0 -52 -17.667 -87 -53 -105c-22.667 -10.667 -54.667 -16 -96 -16h-59c-31.333 0 -52 -3.33301 -62 -10s-15 -21 -15 -43v-32z" />
    <glyph glyph-name="twosuperior" unicode="&#x406;" horiz-adv-x="474" 
d="M147 343l274 0.000976562v-76h-370v108c0 46 12.333 80 37 102c10 10 22.5 17 37.5 21s36.5 6 64.5 6h68c46 0 69 14 69 42c0 30 -23 45 -69 45h-200v76h219c56.667 0 95.667 -9.33301 117 -28c12 -10 21.333 -22.833 28 -38.5s10 -32.834 10 -51.501
c0 -52 -17.667 -87 -53 -105c-22.667 -10.667 -54.667 -16 -96 -16h-59c-31.333 0 -52 -3.33301 -62 -10s-15 -21 -15 -43v-32z" />
    <glyph glyph-name="threesuperior" unicode="&#xb3;" horiz-adv-x="474" 
d="M61 267l-0.00195312 76.001h184c24 0 40.5 3.16699 49.5 9.5s13.5 17.5 13.5 33.5c0 18 -6.33301 30.667 -19 38c-5.33301 2.66699 -10.5 4.33398 -15.5 5.00098s-14.5 1 -28.5 1h-144v77h144c24.667 0 41.334 2.83301 50.001 8.5s13 16.5 13 32.5
c0 16.667 -6 28.667 -18 36c-7.33301 4.66699 -22.333 7 -45 7h-184v76h199c46.667 0 78.334 -4.33301 95.001 -13c38.667 -18 58 -50.333 58 -97c0 -38.667 -17.667 -68 -53 -88c35.333 -23.333 53 -55 53 -95c0 -38.667 -15.667 -67.334 -47 -86.001
c-14.667 -8.66699 -29.5 -14.334 -44.5 -17.001s-39.167 -4 -72.5 -4h-188z" />
    <glyph glyph-name="threesuperior" unicode="&#x456;" horiz-adv-x="474" 
d="M61 267l-0.00195312 76.001h184c24 0 40.5 3.16699 49.5 9.5s13.5 17.5 13.5 33.5c0 18 -6.33301 30.667 -19 38c-5.33301 2.66699 -10.5 4.33398 -15.5 5.00098s-14.5 1 -28.5 1h-144v77h144c24.667 0 41.334 2.83301 50.001 8.5s13 16.5 13 32.5
c0 16.667 -6 28.667 -18 36c-7.33301 4.66699 -22.333 7 -45 7h-184v76h199c46.667 0 78.334 -4.33301 95.001 -13c38.667 -18 58 -50.333 58 -97c0 -38.667 -17.667 -68 -53 -88c35.333 -23.333 53 -55 53 -95c0 -38.667 -15.667 -67.334 -47 -86.001
c-14.667 -8.66699 -29.5 -14.334 -44.5 -17.001s-39.167 -4 -72.5 -4h-188z" />
    <glyph glyph-name="acute" unicode="&#xb4;" 
d="M403 675l-124 -130h-86l92 130h118z" />
    <glyph glyph-name="acute" unicode="&#x491;" 
d="M403 675l-124 -130h-86l92 130h118z" />
    <glyph glyph-name="mu" unicode="&#xb5;" horiz-adv-x="590" 
d="M200 3v-186h-134v670h134v-316c0 -44.667 21.333 -67 64 -67h126v383h134v-487h-263h-23c-13.333 0 -26 1 -38 3z" />
    <glyph glyph-name="paragraph" unicode="&#xb6;" horiz-adv-x="643" 
d="M248 -155l0.00195312 388.001c-52 0 -92.833 7.33301 -122.5 22s-53.834 40.167 -72.501 76.5s-28 75.833 -28 118.5c0 39.333 9 76.333 27 111s42 60.667 72 78c16 9.33301 36.167 16.333 60.5 21s54.166 7 89.499 7h361v-117h-60v-705h-118v705h-165
c-34 0 -57.667 -3.33301 -71 -10c-27.333 -14.667 -41 -43.334 -41 -86.001c0 -68 35 -102 105 -102h81v-507h-118z" />
    <glyph glyph-name="periodcentered" unicode="&#xb7;" horiz-adv-x="224" 
d="M172 398v-130h-121v130h121z" />
    <glyph glyph-name="periodcentered" unicode="&#x2219;" horiz-adv-x="224" 
d="M172 398v-130h-121v130h121z" />
    <glyph glyph-name="cedilla" unicode="&#xb8;" horiz-adv-x="508" 
d="M437 542h-114v116h114v-116zM239 542h-115v116h115v-116zM493 192h-322c0 -32 9.66699 -54.667 29 -68s49 -20 89 -20h184v-104h-188c-85.333 -0 -149.666 23.333 -192.999 70c-39.333 42.667 -59 102.667 -59 180c0 68.667 20.667 124.667 62 168c44 46 104 69 180 69
c77.333 0 134.666 -24.667 171.999 -74c30.667 -40.667 46 -95 46 -163v-58zM382 296c0 30 -11.333 52.666 -34 67.999c-18.667 12.667 -43 19 -73 19c-36 0 -61.667 -6.16699 -77 -18.5s-24.333 -35.166 -27 -68.499h211z" />
    <glyph glyph-name="cedilla" unicode="&#x451;" horiz-adv-x="508" 
d="M437 542h-114v116h114v-116zM239 542h-115v116h115v-116zM493 192h-322c0 -32 9.66699 -54.667 29 -68s49 -20 89 -20h184v-104h-188c-85.333 -0 -149.666 23.333 -192.999 70c-39.333 42.667 -59 102.667 -59 180c0 68.667 20.667 124.667 62 168c44 46 104 69 180 69
c77.333 0 134.666 -24.667 171.999 -74c30.667 -40.667 46 -95 46 -163v-58zM382 296c0 30 -11.333 52.666 -34 67.999c-18.667 12.667 -43 19 -73 19c-36 0 -61.667 -6.16699 -77 -18.5s-24.333 -35.166 -27 -68.499h211z" />
    <glyph glyph-name="onesuperior" unicode="&#xb9;" horiz-adv-x="1086" 
d="M203 489v-489h-135v667h181l266 -497v497h135v-667h-174zM883 635c52.667 0 93.5 -13.5 122.5 -40.5s43.5 -65.167 43.5 -114.5c0 -44.667 -15 -80.334 -45 -107.001s-70.667 -40 -122 -40c-52 0 -92.333 13.333 -121 40s-43 64.334 -43 113.001
c0 44.667 15 80.667 45 108s70 41 120 41zM884 568c-48.667 0 -73 -28.333 -73 -85c0 -55.333 24.333 -83 73 -83c48 0 72 28 72 84s-24 84 -72 84zM747 263h274v-76h-274v76z" />
    <glyph glyph-name="onesuperior" unicode="&#x2116;" horiz-adv-x="1086" 
d="M203 489v-489h-135v667h181l266 -497v497h135v-667h-174zM883 635c52.667 0 93.5 -13.5 122.5 -40.5s43.5 -65.167 43.5 -114.5c0 -44.667 -15 -80.334 -45 -107.001s-70.667 -40 -122 -40c-52 0 -92.333 13.333 -121 40s-43 64.334 -43 113.001
c0 44.667 15 80.667 45 108s70 41 120 41zM884 568c-48.667 0 -73 -28.333 -73 -85c0 -55.333 24.333 -83 73 -83c48 0 72 28 72 84s-24 84 -72 84zM747 263h274v-76h-274v76z" />
    <glyph glyph-name="ordmasculine" unicode="&#xba;" horiz-adv-x="387" 
d="M193 565c52.667 0 93.5 -13.5 122.5 -40.5s43.5 -65.167 43.5 -114.5c0 -44.667 -15 -80.334 -45 -107.001s-70.667 -40 -122 -40c-52 0 -92.333 13.333 -121 40s-43 64.334 -43 113.001c0 44.667 15 80.667 45 108s70 41 120 41zM194 498c-48.667 0 -73 -28.333 -73 -85
c0 -55.333 24.333 -83 73 -83c48 0 72 28 72 84s-24 84 -72 84z" />
    <glyph glyph-name="ordmasculine" unicode="&#x454;" horiz-adv-x="387" 
d="M193 565c52.667 0 93.5 -13.5 122.5 -40.5s43.5 -65.167 43.5 -114.5c0 -44.667 -15 -80.334 -45 -107.001s-70.667 -40 -122 -40c-52 0 -92.333 13.333 -121 40s-43 64.334 -43 113.001c0 44.667 15 80.667 45 108s70 41 120 41zM194 498c-48.667 0 -73 -28.333 -73 -85
c0 -55.333 24.333 -83 73 -83c48 0 72 28 72 84s-24 84 -72 84z" />
    <glyph glyph-name="guillemotright" unicode="&#xbb;" horiz-adv-x="401" 
d="M50 408l133 -108v-121l-133 -105v119l70 47l-70 49v119zM226 408l133 -108v-121l-133 -105v119l70 47l-70 49v119z" />
    <glyph glyph-name="onequarter" unicode="&#xbc;" horiz-adv-x="1107" 
d="M325 267h-96v400h96v-400zM689 671h96l-374 -675h-96zM623 68v88l239 244h123v-256h55v-76h-55v-68h-96v68h-266zM735 144h154v157z" />
    <glyph glyph-name="onequarter" unicode="&#x458;" horiz-adv-x="1107" 
d="M325 267h-96v400h96v-400zM689 671h96l-374 -675h-96zM623 68v88l239 244h123v-256h55v-76h-55v-68h-96v68h-266zM735 144h154v157z" />
    <glyph glyph-name="onehalf" unicode="&#xbd;" horiz-adv-x="1107" 
d="M325 267h-96v400h96v-400zM689 671h96l-374 -675h-96zM793 76l274 0.000976562v-76h-370v108c0 46 12.333 80 37 102c10 10 22.5 17 37.5 21s36.5 6 64.5 6h68c46 0 69 14 69 42c0 30 -23 45 -69 45h-200v76h219c56.667 0 95.667 -9.33301 117 -28
c12 -10 21.333 -22.833 28 -38.5s10 -32.834 10 -51.501c0 -52 -17.667 -87 -53 -105c-22.667 -10.667 -54.667 -16 -96 -16h-59c-31.333 0 -52 -3.33301 -62 -10s-15 -21 -15 -43v-32z" />
    <glyph glyph-name="onehalf" unicode="&#x405;" horiz-adv-x="1107" 
d="M325 267h-96v400h96v-400zM689 671h96l-374 -675h-96zM793 76l274 0.000976562v-76h-370v108c0 46 12.333 80 37 102c10 10 22.5 17 37.5 21s36.5 6 64.5 6h68c46 0 69 14 69 42c0 30 -23 45 -69 45h-200v76h219c56.667 0 95.667 -9.33301 117 -28
c12 -10 21.333 -22.833 28 -38.5s10 -32.834 10 -51.501c0 -52 -17.667 -87 -53 -105c-22.667 -10.667 -54.667 -16 -96 -16h-59c-31.333 0 -52 -3.33301 -62 -10s-15 -21 -15 -43v-32z" />
    <glyph glyph-name="threequarters" unicode="&#xbe;" horiz-adv-x="1107" 
d="M61 267l-0.00195312 76.001h184c24 0 40.5 3.16699 49.5 9.5s13.5 17.5 13.5 33.5c0 18 -6.33301 30.667 -19 38c-5.33301 2.66699 -10.5 4.33398 -15.5 5.00098s-14.5 1 -28.5 1h-144v77h144c24.667 0 41.334 2.83301 50.001 8.5s13 16.5 13 32.5
c0 16.667 -6 28.667 -18 36c-7.33301 4.66699 -22.333 7 -45 7h-184v76h199c46.667 0 78.334 -4.33301 95.001 -13c38.667 -18 58 -50.333 58 -97c0 -38.667 -17.667 -68 -53 -88c35.333 -23.333 53 -55 53 -95c0 -38.667 -15.667 -67.334 -47 -86.001
c-14.667 -8.66699 -29.5 -14.334 -44.5 -17.001s-39.167 -4 -72.5 -4h-188zM688.998 671.001h96l-374 -675h-96zM616.998 68.001v88l239 244h122v-256h55v-76h-55v-68h-96v68h-265zM727.998 144.001h154v157z" />
    <glyph glyph-name="threequarters" unicode="&#x455;" horiz-adv-x="1107" 
d="M61 267l-0.00195312 76.001h184c24 0 40.5 3.16699 49.5 9.5s13.5 17.5 13.5 33.5c0 18 -6.33301 30.667 -19 38c-5.33301 2.66699 -10.5 4.33398 -15.5 5.00098s-14.5 1 -28.5 1h-144v77h144c24.667 0 41.334 2.83301 50.001 8.5s13 16.5 13 32.5
c0 16.667 -6 28.667 -18 36c-7.33301 4.66699 -22.333 7 -45 7h-184v76h199c46.667 0 78.334 -4.33301 95.001 -13c38.667 -18 58 -50.333 58 -97c0 -38.667 -17.667 -68 -53 -88c35.333 -23.333 53 -55 53 -95c0 -38.667 -15.667 -67.334 -47 -86.001
c-14.667 -8.66699 -29.5 -14.334 -44.5 -17.001s-39.167 -4 -72.5 -4h-188zM688.998 671.001h96l-374 -675h-96zM616.998 68.001v88l239 244h122v-256h55v-76h-55v-68h-96v68h-265zM727.998 144.001h154v157z" />
    <glyph glyph-name="questiondown" unicode="&#xbf;" horiz-adv-x="681" 
d="M622 0l-349 0.000976562c-52 0 -88 2 -108 6s-40.667 13.667 -62 29c-46.667 34 -70 88.667 -70 164s24.333 129 73 161c29.333 20.667 78 31 146 31h88c50 0 82.5 6 97.5 18s22.5 32.333 22.5 61v34h142v-47c0 -68 -18 -117 -54 -147
c-30.667 -24.667 -85.667 -37 -165 -37h-81c-43.333 0 -73 -5.5 -89 -16.5s-24 -32.167 -24 -63.5c0 -26.667 7.16699 -45.834 21.5 -57.501s37.833 -17.5 70.5 -17.5h41h300v-118zM460 554.001v113h142v-113h-142z" />
    <glyph glyph-name="questiondown" unicode="&#x457;" horiz-adv-x="681" 
d="M622 0l-349 0.000976562c-52 0 -88 2 -108 6s-40.667 13.667 -62 29c-46.667 34 -70 88.667 -70 164s24.333 129 73 161c29.333 20.667 78 31 146 31h88c50 0 82.5 6 97.5 18s22.5 32.333 22.5 61v34h142v-47c0 -68 -18 -117 -54 -147
c-30.667 -24.667 -85.667 -37 -165 -37h-81c-43.333 0 -73 -5.5 -89 -16.5s-24 -32.167 -24 -63.5c0 -26.667 7.16699 -45.834 21.5 -57.501s37.833 -17.5 70.5 -17.5h41h300v-118zM460 554.001v113h142v-113h-142z" />
    <glyph glyph-name="Agrave" unicode="&#xc0;" horiz-adv-x="723" 
d="M719 0h-154l-62 155h-290l-62 -155h-147l276 667h163zM465 274l-107 274l-105 -274h212z" />
    <glyph glyph-name="Agrave" unicode="&#x410;" horiz-adv-x="723" 
d="M719 0h-154l-62 155h-290l-62 -155h-147l276 667h163zM465 274l-107 274l-105 -274h212z" />
    <glyph glyph-name="Aacute" unicode="&#xc1;" horiz-adv-x="699" 
d="M662 177c0 -58.667 -16.335 -102.001 -49.002 -130.001c-36 -31.333 -94.667 -47 -176 -47h-369v386c0 112.667 32.333 190.334 97 233.001c46.667 30.667 117.334 46 212.001 46h230v-119h-212c-70.667 0 -119.167 -9 -145.5 -27s-39.5 -48.333 -39.5 -91v-35h193
c106.667 0 180.334 -26.667 221.001 -80c25.333 -32.667 38 -78 38 -136zM505.998 200.999c0 24.667 -8.66699 43 -26 55s-42 18 -74 18h-196v-155h193c36.667 0 63 7 79 21s24 34.333 24 61z" />
    <glyph glyph-name="Aacute" unicode="&#x411;" horiz-adv-x="699" 
d="M662 177c0 -58.667 -16.335 -102.001 -49.002 -130.001c-36 -31.333 -94.667 -47 -176 -47h-369v386c0 112.667 32.333 190.334 97 233.001c46.667 30.667 117.334 46 212.001 46h230v-119h-212c-70.667 0 -119.167 -9 -145.5 -27s-39.5 -48.333 -39.5 -91v-35h193
c106.667 0 180.334 -26.667 221.001 -80c25.333 -32.667 38 -78 38 -136zM505.998 200.999c0 24.667 -8.66699 43 -26 55s-42 18 -74 18h-196v-155h193c36.667 0 63 7 79 21s24 34.333 24 61z" />
    <glyph glyph-name="Acircumflex" unicode="&#xc2;" horiz-adv-x="699" 
d="M662 177c0 -58.667 -16.333 -101.999 -49 -129.999c-36 -31.333 -94.667 -47 -176 -47h-369v667h377c76 0 132 -16.333 168 -49c32.667 -29.333 49 -71.333 49 -126c0 -34.667 -9 -66.834 -27 -96.501s-41.333 -50.5 -70 -62.5c64.667 -29.333 97 -81.333 97 -156z
M505 475.001c0 26.667 -6.33203 45 -18.999 55c-14.667 12 -41.334 18 -80.001 18h-196v-155h193c40 0 67.667 7.33301 83 22c12.667 12 19 32 19 60zM506.001 201.001c0 24.667 -8.66699 43 -26 55s-42 18 -74 18h-196v-155h193c36.667 0 63 7 79 21s24 34.333 24 61z" />
    <glyph glyph-name="Acircumflex" unicode="&#x412;" horiz-adv-x="699" 
d="M662 177c0 -58.667 -16.333 -101.999 -49 -129.999c-36 -31.333 -94.667 -47 -176 -47h-369v667h377c76 0 132 -16.333 168 -49c32.667 -29.333 49 -71.333 49 -126c0 -34.667 -9 -66.834 -27 -96.501s-41.333 -50.5 -70 -62.5c64.667 -29.333 97 -81.333 97 -156z
M505 475.001c0 26.667 -6.33203 45 -18.999 55c-14.667 12 -41.334 18 -80.001 18h-196v-155h193c40 0 67.667 7.33301 83 22c12.667 12 19 32 19 60zM506.001 201.001c0 24.667 -8.66699 43 -26 55s-42 18 -74 18h-196v-155h193c36.667 0 63 7 79 21s24 34.333 24 61z" />
    <glyph glyph-name="Atilde" unicode="&#xc3;" horiz-adv-x="614" 
d="M570 548l-182.001 -0.000976562c-70.667 0 -119.167 -9 -145.5 -27s-39.5 -48.333 -39.5 -91v-430h-142v388c0 112.667 32.333 190.334 97 233.001c46.667 30.667 117.334 46 212.001 46h200v-119z" />
    <glyph glyph-name="Atilde" unicode="&#x413;" horiz-adv-x="614" 
d="M570 548l-182.001 -0.000976562c-70.667 0 -119.167 -9 -145.5 -27s-39.5 -48.333 -39.5 -91v-430h-142v388c0 112.667 32.333 190.334 97 233.001c46.667 30.667 117.334 46 212.001 46h200v-119z" />
    <glyph glyph-name="Adieresis" unicode="&#xc4;" horiz-adv-x="720" 
d="M699 -120h-132v92c0 7.33301 -2.5 13.833 -7.5 19.5s-11.5 8.5 -19.5 8.5h-360c-7.33301 -0 -14 -2.66699 -20 -8s-9 -12 -9 -20v-92h-132v169c0 16.667 7.83301 32.5 23.5 47.5s33.5 22.5 53.5 22.5c14.667 30.667 25.5 66.167 32.5 106.5s10.5 82.5 10.5 126.5v315h497
v-548c16 0 30.5 -7.16699 43.5 -21.5s19.5 -30.5 19.5 -48.5v-169zM494 119v428.999h-219v-195c0 -47.333 -3.16699 -94.666 -9.5 -141.999s-15.5 -78 -27.5 -92h256z" />
    <glyph glyph-name="Adieresis" unicode="&#x414;" horiz-adv-x="720" 
d="M699 -120h-132v92c0 7.33301 -2.5 13.833 -7.5 19.5s-11.5 8.5 -19.5 8.5h-360c-7.33301 -0 -14 -2.66699 -20 -8s-9 -12 -9 -20v-92h-132v169c0 16.667 7.83301 32.5 23.5 47.5s33.5 22.5 53.5 22.5c14.667 30.667 25.5 66.167 32.5 106.5s10.5 82.5 10.5 126.5v315h497
v-548c16 0 30.5 -7.16699 43.5 -21.5s19.5 -30.5 19.5 -48.5v-169zM494 119v428.999h-219v-195c0 -47.333 -3.16699 -94.666 -9.5 -141.999s-15.5 -78 -27.5 -92h256z" />
    <glyph glyph-name="Aring" unicode="&#xc5;" horiz-adv-x="612" 
d="M568 0l-184.999 -0.000976562c-113.333 0 -197.333 21.667 -252 65c-66 52.667 -99 143.334 -99 272.001c0 112 28.667 196.333 86 253c51.333 51.333 121.333 77 210 77h240v-119h-185c-76.667 0 -127 -11.667 -151 -35c-19.333 -18.667 -32.333 -59.334 -39 -122.001
h375v-119h-375c5.33301 -57.333 22.166 -97.166 50.499 -119.499s76.833 -33.5 145.5 -33.5h179v-119z" />
    <glyph glyph-name="Aring" unicode="&#x415;" horiz-adv-x="612" 
d="M568 0l-184.999 -0.000976562c-113.333 0 -197.333 21.667 -252 65c-66 52.667 -99 143.334 -99 272.001c0 112 28.667 196.333 86 253c51.333 51.333 121.333 77 210 77h240v-119h-185c-76.667 0 -127 -11.667 -151 -35c-19.333 -18.667 -32.333 -59.334 -39 -122.001
h375v-119h-375c5.33301 -57.333 22.166 -97.166 50.499 -119.499s76.833 -33.5 145.5 -33.5h179v-119z" />
    <glyph glyph-name="AE" unicode="&#xc6;" horiz-adv-x="1031" 
d="M1032 667l-278 -329l265 -338h-187l-241 338l255 329h186zM586 0h-142v667h142v-667zM439 338l-241 -338h-187l265 338l-278 329h186z" />
    <glyph glyph-name="AE" unicode="&#x416;" horiz-adv-x="1031" 
d="M1032 667l-278 -329l265 -338h-187l-241 338l255 329h186zM586 0h-142v667h142v-667zM439 338l-241 -338h-187l265 338l-278 329h186z" />
    <glyph glyph-name="Ccedilla" unicode="&#xc7;" horiz-adv-x="619" 
d="M581 177c0 -60.667 -20.3301 -105.332 -60.9971 -133.999s-105.334 -43 -194.001 -43h-293v118h286c38.667 0 66 6 82 18s24 32.333 24 61c0 27.333 -6.33301 47 -19 59c-16 14.667 -45 22 -87 22h-123v118h123c43.333 0 71.666 5.33301 84.999 16s20 30.334 20 59.001
c0 25.333 -7.83301 44.666 -23.5 57.999s-42.834 20 -81.501 20h-270v118h295c80 0 139.333 -14.667 178 -44s58 -76 58 -140c0 -62.667 -29.667 -111 -89 -145c60 -38.667 90 -92.334 90 -161.001z" />
    <glyph glyph-name="Ccedilla" unicode="&#x417;" horiz-adv-x="619" 
d="M581 177c0 -60.667 -20.3301 -105.332 -60.9971 -133.999s-105.334 -43 -194.001 -43h-293v118h286c38.667 0 66 6 82 18s24 32.333 24 61c0 27.333 -6.33301 47 -19 59c-16 14.667 -45 22 -87 22h-123v118h123c43.333 0 71.666 5.33301 84.999 16s20 30.334 20 59.001
c0 25.333 -7.83301 44.666 -23.5 57.999s-42.834 20 -81.501 20h-270v118h295c80 0 139.333 -14.667 178 -44s58 -76 58 -140c0 -62.667 -29.667 -111 -89 -145c60 -38.667 90 -92.334 90 -161.001z" />
    <glyph glyph-name="Egrave" unicode="&#xc8;" horiz-adv-x="718" 
d="M649 0h-135v489l-273 -489h-174v667h135v-497l266 497h181v-667z" />
    <glyph glyph-name="Egrave" unicode="&#x418;" horiz-adv-x="718" 
d="M649 0h-135v489l-273 -489h-174v667h135v-497l266 497h181v-667z" />
    <glyph glyph-name="Eacute" unicode="&#xc9;" horiz-adv-x="718" 
d="M523 817c0 -41.333 -13.002 -74.332 -39.002 -98.999c-29.333 -28 -71.666 -42 -126.999 -42s-97.5 13.167 -126.5 39.5s-43.5 60.166 -43.5 101.499h104c0 -21.333 6.33301 -37.333 19 -48s28.334 -16 47.001 -16c20 0 35.667 5 47 15s17 26.333 17 49h102z
M648.998 0.000976562h-135v489l-273 -489h-174v667h135v-497l266 497h181v-667z" />
    <glyph glyph-name="Eacute" unicode="&#x419;" horiz-adv-x="718" 
d="M523 817c0 -41.333 -13.002 -74.332 -39.002 -98.999c-29.333 -28 -71.666 -42 -126.999 -42s-97.5 13.167 -126.5 39.5s-43.5 60.166 -43.5 101.499h104c0 -21.333 6.33301 -37.333 19 -48s28.334 -16 47.001 -16c20 0 35.667 5 47 15s17 26.333 17 49h102z
M648.998 0.000976562h-135v489l-273 -489h-174v667h135v-497l266 497h181v-667z" />
    <glyph glyph-name="Ecircumflex" unicode="&#xca;" horiz-adv-x="659" 
d="M656 667l-278 -329l265 -338h-187l-241 338l255 329h186zM210 0h-142v667h142v-667z" />
    <glyph glyph-name="Ecircumflex" unicode="&#x41a;" horiz-adv-x="659" 
d="M656 667l-278 -329l265 -338h-187l-241 338l255 329h186zM210 0h-142v667h142v-667z" />
    <glyph glyph-name="Edieresis" unicode="&#xcb;" horiz-adv-x="702" 
d="M636 0h-142v548h-219v-245c0 -104 -22.333 -182.333 -67 -235c-38.667 -45.333 -88.667 -68 -150 -68h-31v119h31c17.333 0 34 13.667 50 41c20.667 34.667 31 82 31 142v365h497v-667z" />
    <glyph glyph-name="Edieresis" unicode="&#x41b;" horiz-adv-x="702" 
d="M636 0h-142v548h-219v-245c0 -104 -22.333 -182.333 -67 -235c-38.667 -45.333 -88.667 -68 -150 -68h-31v119h31c17.333 0 34 13.667 50 41c20.667 34.667 31 82 31 142v365h497v-667z" />
    <glyph glyph-name="Igrave" unicode="&#xcc;" horiz-adv-x="890" 
d="M822 0h-135v501l-175 -501h-146l-165 501v-501h-135v667h208l166 -521l175 521h207v-667z" />
    <glyph glyph-name="Igrave" unicode="&#x41c;" horiz-adv-x="890" 
d="M822 0h-135v501l-175 -501h-146l-165 501v-501h-135v667h208l166 -521l175 521h207v-667z" />
    <glyph glyph-name="Iacute" unicode="&#xcd;" horiz-adv-x="677" 
d="M609 0h-142v275h-257v-275h-142v667h142v-273h257v273h142v-667z" />
    <glyph glyph-name="Iacute" unicode="&#x41d;" horiz-adv-x="677" 
d="M609 0h-142v275h-257v-275h-142v667h142v-273h257v273h142v-667z" />
    <glyph glyph-name="Icircumflex" unicode="&#xce;" horiz-adv-x="723" 
d="M690 324c0 -105.333 -26.001 -185.668 -78.001 -241.001c-54.667 -58 -135 -87 -241 -87c-113.333 0 -198.166 28.833 -254.499 86.5s-84.5 140.167 -84.5 247.5c0 116 26.333 202 79 258s136 84 250 84s197.333 -28.667 250 -86s79 -144.666 79 -261.999z
M533.999 332.998c0 78 -13.834 135.168 -41.501 171.501s-71.167 54.5 -130.5 54.5s-102.666 -16.667 -129.999 -50c-29.333 -36 -44 -94 -44 -174c0 -78 14 -135.333 42 -172s72 -55 132 -55c59.333 0 102.833 18.167 130.5 54.5s41.5 93.166 41.5 170.499z" />
    <glyph glyph-name="Icircumflex" unicode="&#x41e;" horiz-adv-x="723" 
d="M690 324c0 -105.333 -26.001 -185.668 -78.001 -241.001c-54.667 -58 -135 -87 -241 -87c-113.333 0 -198.166 28.833 -254.499 86.5s-84.5 140.167 -84.5 247.5c0 116 26.333 202 79 258s136 84 250 84s197.333 -28.667 250 -86s79 -144.666 79 -261.999z
M533.999 332.998c0 78 -13.834 135.168 -41.501 171.501s-71.167 54.5 -130.5 54.5s-102.666 -16.667 -129.999 -50c-29.333 -36 -44 -94 -44 -174c0 -78 14 -135.333 42 -172s72 -55 132 -55c59.333 0 102.833 18.167 130.5 54.5s41.5 93.166 41.5 170.499z" />
    <glyph glyph-name="Idieresis" unicode="&#xcf;" horiz-adv-x="677" 
d="M609 0h-142v548h-257v-548h-142v667h541v-667z" />
    <glyph glyph-name="Idieresis" unicode="&#x41f;" horiz-adv-x="677" 
d="M609 0h-142v548h-257v-548h-142v667h541v-667z" />
    <glyph glyph-name="Eth" unicode="&#xd0;" horiz-adv-x="686" 
d="M663 450c0 -62.667 -16.667 -112.999 -50 -150.999c-38.667 -44 -97 -66 -175 -66h-228v-233h-142v667h333c99.333 0 170.333 -22.667 213 -68c32.667 -34.667 49 -84.334 49 -149.001zM507 455.001c0 32.667 -6.33398 55.667 -19.001 69
c-15.333 16 -42.666 24 -81.999 24h-196v-196h193c39.333 0 66.5 8.16699 81.5 24.5s22.5 42.5 22.5 78.5z" />
    <glyph glyph-name="Eth" unicode="&#x420;" horiz-adv-x="686" 
d="M663 450c0 -62.667 -16.667 -112.999 -50 -150.999c-38.667 -44 -97 -66 -175 -66h-228v-233h-142v667h333c99.333 0 170.333 -22.667 213 -68c32.667 -34.667 49 -84.334 49 -149.001zM507 455.001c0 32.667 -6.33398 55.667 -19.001 69
c-15.333 16 -42.666 24 -81.999 24h-196v-196h193c39.333 0 66.5 8.16699 81.5 24.5s22.5 42.5 22.5 78.5z" />
    <glyph glyph-name="Ntilde" unicode="&#xd1;" horiz-adv-x="607" 
d="M574 0l-231.999 0.000976562c-110 0 -189.167 26.5 -237.5 79.5s-72.5 137.167 -72.5 252.5c0 109.333 24.333 191.666 73 246.999c52 58.667 133 88 243 88h226v-119h-209c-60.667 0 -104.334 -13.667 -131.001 -41c-30 -31.333 -45 -85.333 -45 -162
c0 -82.667 13.333 -141 40 -175s73.667 -51 141 -51h204v-119z" />
    <glyph glyph-name="Ntilde" unicode="&#x421;" horiz-adv-x="607" 
d="M574 0l-231.999 0.000976562c-110 0 -189.167 26.5 -237.5 79.5s-72.5 137.167 -72.5 252.5c0 109.333 24.333 191.666 73 246.999c52 58.667 133 88 243 88h226v-119h-209c-60.667 0 -104.334 -13.667 -131.001 -41c-30 -31.333 -45 -85.333 -45 -162
c0 -82.667 13.333 -141 40 -175s73.667 -51 141 -51h204v-119z" />
    <glyph glyph-name="Ograve" unicode="&#xd2;" horiz-adv-x="585" 
d="M570 548h-210v-548h-142v548h-203v119h555v-119z" />
    <glyph glyph-name="Ograve" unicode="&#x422;" horiz-adv-x="585" 
d="M570 548h-210v-548h-142v548h-203v119h555v-119z" />
    <glyph glyph-name="Oacute" unicode="&#xd3;" horiz-adv-x="642" 
d="M570 293c0 -110 -21.333 -186.334 -64 -229.001s-116.667 -64 -222 -64h-211v119h211c50.667 0 84.667 3 102 9c28 10 42 31.667 42 65h-164c-67.333 0 -119.333 21 -156 63s-55 100 -55 174v237h142v-232c0 -43.333 7.5 -74.666 22.5 -93.999s42.167 -29 81.5 -29h129
v355h142v-374z" />
    <glyph glyph-name="Oacute" unicode="&#x423;" horiz-adv-x="642" 
d="M570 293c0 -110 -21.333 -186.334 -64 -229.001s-116.667 -64 -222 -64h-211v119h211c50.667 0 84.667 3 102 9c28 10 42 31.667 42 65h-164c-67.333 0 -119.333 21 -156 63s-55 100 -55 174v237h142v-232c0 -43.333 7.5 -74.666 22.5 -93.999s42.167 -29 81.5 -29h129
v355h142v-374z" />
    <glyph glyph-name="Ocircumflex" unicode="&#xd4;" horiz-adv-x="808" 
d="M777 330c0 -66.667 -16.667 -123.667 -50 -171c-40.667 -57.333 -99 -86 -175 -86h-77v-73h-142v73h-77c-64 0 -118.333 28.667 -163 86c-41.333 52.667 -62 109.667 -62 171c0 70 16 127.667 48 173c44.667 62.667 116 94 214 94h40v70h142v-70h40
c97.333 0 168.333 -31 213 -93c32.667 -45.333 49 -103.333 49 -174zM641 335c0 38 -8 71.001 -24 99.001c-20.667 36 -49.667 54 -87 54h-55v-306h52c37.333 0 66.333 16.667 87 50c18 29.333 27 63.666 27 102.999zM333 182.001l0.00195312 306h-55
c-36.667 0 -65.334 -18 -86.001 -54c-16.667 -29.333 -25 -62.333 -25 -99c0 -40 8.66699 -74 26 -102c21.333 -34 50.666 -51 87.999 -51h52z" />
    <glyph glyph-name="Ocircumflex" unicode="&#x424;" horiz-adv-x="808" 
d="M777 330c0 -66.667 -16.667 -123.667 -50 -171c-40.667 -57.333 -99 -86 -175 -86h-77v-73h-142v73h-77c-64 0 -118.333 28.667 -163 86c-41.333 52.667 -62 109.667 -62 171c0 70 16 127.667 48 173c44.667 62.667 116 94 214 94h40v70h142v-70h40
c97.333 0 168.333 -31 213 -93c32.667 -45.333 49 -103.333 49 -174zM641 335c0 38 -8 71.001 -24 99.001c-20.667 36 -49.667 54 -87 54h-55v-306h52c37.333 0 66.333 16.667 87 50c18 29.333 27 63.666 27 102.999zM333 182.001l0.00195312 306h-55
c-36.667 0 -65.334 -18 -86.001 -54c-16.667 -29.333 -25 -62.333 -25 -99c0 -40 8.66699 -74 26 -102c21.333 -34 50.666 -51 87.999 -51h52z" />
    <glyph glyph-name="Otilde" unicode="&#xd5;" horiz-adv-x="637" 
d="M632 0h-167l-147 229l-144 -229h-169l227 337l-219 330h174l131 -219l142 219h172l-226 -330z" />
    <glyph glyph-name="Otilde" unicode="&#x425;" horiz-adv-x="637" 
d="M632 0h-167l-147 229l-144 -229h-169l227 337l-219 330h174l131 -219l142 219h172l-226 -330z" />
    <glyph glyph-name="Odieresis" unicode="&#xd6;" horiz-adv-x="707" 
d="M376 0c-124 0 -207.334 22.667 -250.001 68c-38 40 -57 115 -57 225v374h142v-374c0 -74 9.83301 -121.5 29.5 -142.5s64.834 -31.5 135.501 -31.5h90v548h142v-548c22 0 39.667 -8.33301 53 -25s20 -37.667 20 -63v-151h-132v92c0 7.33301 -2.5 13.833 -7.5 19.5
s-11.5 8.5 -19.5 8.5h-146z" />
    <glyph glyph-name="Odieresis" unicode="&#x426;" horiz-adv-x="707" 
d="M376 0c-124 0 -207.334 22.667 -250.001 68c-38 40 -57 115 -57 225v374h142v-374c0 -74 9.83301 -121.5 29.5 -142.5s64.834 -31.5 135.501 -31.5h90v548h142v-548c22 0 39.667 -8.33301 53 -25s20 -37.667 20 -63v-151h-132v92c0 7.33301 -2.5 13.833 -7.5 19.5
s-11.5 8.5 -19.5 8.5h-146z" />
    <glyph glyph-name="multiply" unicode="&#xd7;" horiz-adv-x="644" 
d="M570 0l-142 -0.000976562v193h-164c-67.333 0 -119.333 21 -156 63s-55 100 -55 174v237h142v-232c0 -43.333 7.5 -74.666 22.5 -93.999s42.167 -29 81.5 -29h129v355h142v-667z" />
    <glyph glyph-name="multiply" unicode="&#x427;" horiz-adv-x="644" 
d="M570 0l-142 -0.000976562v193h-164c-67.333 0 -119.333 21 -156 63s-55 100 -55 174v237h142v-232c0 -43.333 7.5 -74.666 22.5 -93.999s42.167 -29 81.5 -29h129v355h142v-667z" />
    <glyph glyph-name="Oslash" unicode="&#xd8;" horiz-adv-x="890" 
d="M376 0c-124 0 -207.334 22.667 -250.001 68c-38 40 -57 115 -57 225v374h142v-374c0 -74 9.83301 -121.5 29.5 -142.5s64.834 -31.5 135.501 -31.5v548h146v-548h158v548h142v-667h-446z" />
    <glyph glyph-name="Oslash" unicode="&#x428;" horiz-adv-x="890" 
d="M376 0c-124 0 -207.334 22.667 -250.001 68c-38 40 -57 115 -57 225v374h142v-374c0 -74 9.83301 -121.5 29.5 -142.5s64.834 -31.5 135.501 -31.5v548h146v-548h158v548h142v-667h-446z" />
    <glyph glyph-name="Ugrave" unicode="&#xd9;" horiz-adv-x="914" 
d="M366 0c-124 0 -207.334 22.667 -250.001 68c-38 40 -57 115 -57 225v374h142v-374c0 -74 9.83301 -121.5 29.5 -142.5s64.834 -31.5 135.501 -31.5v548h146v-548h168v548h142v-548c26.667 0 47.167 -8.16699 61.5 -24.5s21.5 -37.5 21.5 -63.5v-151h-132v92
c0 7.33301 -2.5 13.833 -7.5 19.5s-11.5 8.5 -19.5 8.5h-380z" />
    <glyph glyph-name="Ugrave" unicode="&#x429;" horiz-adv-x="914" 
d="M366 0c-124 0 -207.334 22.667 -250.001 68c-38 40 -57 115 -57 225v374h142v-374c0 -74 9.83301 -121.5 29.5 -142.5s64.834 -31.5 135.501 -31.5v548h146v-548h168v548h142v-548c26.667 0 47.167 -8.16699 61.5 -24.5s21.5 -37.5 21.5 -63.5v-151h-132v92
c0 7.33301 -2.5 13.833 -7.5 19.5s-11.5 8.5 -19.5 8.5h-380z" />
    <glyph glyph-name="Uacute" unicode="&#xda;" horiz-adv-x="732" 
d="M703 217c0 -64.667 -15.999 -114.332 -47.999 -148.999c-42 -45.333 -113.333 -68 -214 -68h-333v520c0 8 -2.33301 14.667 -7 20s-11 8 -19 8h-77v119h77c45.333 0 84.666 -13.833 117.999 -41.5s50 -62.834 50 -105.501v-86h228c78 0 136.333 -22 175 -66
c33.333 -38 50 -88.333 50 -151zM547.001 212.002c0 36 -7 61.667 -21 77c-16 17.333 -43.667 26 -83 26h-193v-196h196c38.667 0 65.167 7.5 79.5 22.5s21.5 38.5 21.5 70.5z" />
    <glyph glyph-name="Uacute" unicode="&#x42a;" horiz-adv-x="732" 
d="M703 217c0 -64.667 -15.999 -114.332 -47.999 -148.999c-42 -45.333 -113.333 -68 -214 -68h-333v520c0 8 -2.33301 14.667 -7 20s-11 8 -19 8h-77v119h77c45.333 0 84.666 -13.833 117.999 -41.5s50 -62.834 50 -105.501v-86h228c78 0 136.333 -22 175 -66
c33.333 -38 50 -88.333 50 -151zM547.001 212.002c0 36 -7 61.667 -21 77c-16 17.333 -43.667 26 -83 26h-193v-196h196c38.667 0 65.167 7.5 79.5 22.5s21.5 38.5 21.5 70.5z" />
    <glyph glyph-name="Ucircumflex" unicode="&#xdb;" horiz-adv-x="938" 
d="M869 0h-142v667h142v-667zM663 217c0 -64.667 -16 -114.333 -48 -149c-42 -45.333 -113.333 -68 -214 -68h-333v667h142v-233h228c78 0 136.333 -22 175 -66c33.333 -38 50 -88.333 50 -151zM507 212.001c0 36 -7 61.667 -21 77c-16 17.333 -43.667 26 -83 26h-193v-196
h196c38.667 0 65.167 7.5 79.5 22.5s21.5 38.5 21.5 70.5z" />
    <glyph glyph-name="Ucircumflex" unicode="&#x42b;" horiz-adv-x="938" 
d="M869 0h-142v667h142v-667zM663 217c0 -64.667 -16 -114.333 -48 -149c-42 -45.333 -113.333 -68 -214 -68h-333v667h142v-233h228c78 0 136.333 -22 175 -66c33.333 -38 50 -88.333 50 -151zM507 212.001c0 36 -7 61.667 -21 77c-16 17.333 -43.667 26 -83 26h-193v-196
h196c38.667 0 65.167 7.5 79.5 22.5s21.5 38.5 21.5 70.5z" />
    <glyph glyph-name="Udieresis" unicode="&#xdc;" horiz-adv-x="686" 
d="M663 217c0 -64.667 -16 -114.333 -48 -149c-42 -45.333 -113.333 -68 -214 -68h-333v667h142v-233h228c78 0 136.333 -22 175 -66c33.333 -38 50 -88.333 50 -151zM507 212.001c0 36 -7 61.667 -21 77c-16 17.333 -43.667 26 -83 26h-193v-196h196
c38.667 0 65.167 7.5 79.5 22.5s21.5 38.5 21.5 70.5z" />
    <glyph glyph-name="Udieresis" unicode="&#x42c;" horiz-adv-x="686" 
d="M663 217c0 -64.667 -16 -114.333 -48 -149c-42 -45.333 -113.333 -68 -214 -68h-333v667h142v-233h228c78 0 136.333 -22 175 -66c33.333 -38 50 -88.333 50 -151zM507 212.001c0 36 -7 61.667 -21 77c-16 17.333 -43.667 26 -83 26h-193v-196h196
c38.667 0 65.167 7.5 79.5 22.5s21.5 38.5 21.5 70.5z" />
    <glyph glyph-name="Yacute" unicode="&#xdd;" horiz-adv-x="619" 
d="M574 337c0 -128.667 -32.998 -219.331 -98.998 -271.998c-54 -43.333 -138 -65 -252 -65h-185v119h179c68.667 0 117.167 11.167 145.5 33.5s45.166 62.166 50.499 119.499h-295v119h295c-6.66699 63.333 -19.334 104 -38.001 122c-24 23.333 -74.667 35 -152 35h-185
v119h240c88.667 0 158.667 -25.333 210 -76c57.333 -56.667 86 -141.334 86 -254.001z" />
    <glyph glyph-name="Yacute" unicode="&#x42d;" horiz-adv-x="619" 
d="M574 337c0 -128.667 -32.998 -219.331 -98.998 -271.998c-54 -43.333 -138 -65 -252 -65h-185v119h179c68.667 0 117.167 11.167 145.5 33.5s45.166 62.166 50.499 119.499h-295v119h295c-6.66699 63.333 -19.334 104 -38.001 122c-24 23.333 -74.667 35 -152 35h-185
v119h240c88.667 0 158.667 -25.333 210 -76c57.333 -56.667 86 -141.334 86 -254.001z" />
    <glyph glyph-name="Thorn" unicode="&#xde;" horiz-adv-x="970" 
d="M940 324c0 -105.333 -26 -185.667 -78 -241c-54.667 -58 -135 -87 -241 -87c-104.667 0 -184.667 23.667 -240 71s-87.333 116.666 -96 207.999h-75v-275h-142v667h142v-273h75c8.66699 95.333 39.167 165.5 91.5 210.5s130.5 67.5 234.5 67.5
c114 0 197.333 -28.667 250 -86s79 -144.666 79 -261.999zM784 332.999c0 78 -13.834 135.168 -41.501 171.501s-71.167 54.5 -130.5 54.5s-102.666 -16.667 -129.999 -50c-29.333 -36 -44 -94 -44 -174c0 -78 14 -135.333 42 -172s72 -55 132 -55
c59.333 0 102.833 18.167 130.5 54.5s41.5 93.166 41.5 170.499z" />
    <glyph glyph-name="Thorn" unicode="&#x42e;" horiz-adv-x="970" 
d="M940 324c0 -105.333 -26 -185.667 -78 -241c-54.667 -58 -135 -87 -241 -87c-104.667 0 -184.667 23.667 -240 71s-87.333 116.666 -96 207.999h-75v-275h-142v667h142v-273h75c8.66699 95.333 39.167 165.5 91.5 210.5s130.5 67.5 234.5 67.5
c114 0 197.333 -28.667 250 -86s79 -144.666 79 -261.999zM784 332.999c0 78 -13.834 135.168 -41.501 171.501s-71.167 54.5 -130.5 54.5s-102.666 -16.667 -129.999 -50c-29.333 -36 -44 -94 -44 -174c0 -78 14 -135.333 42 -172s72 -55 132 -55
c59.333 0 102.833 18.167 130.5 54.5s41.5 93.166 41.5 170.499z" />
    <glyph glyph-name="germandbls" unicode="&#xdf;" horiz-adv-x="715" 
d="M648 0h-142.002v253h-114c-61.333 0 -107.166 -14 -137.499 -42s-45.5 -66.667 -45.5 -116v-95h-150l1 101c0 46 9.83301 85.833 29.5 119.5s48.167 55.5 85.5 65.5c-39.333 14 -68 39 -86 75c-14 28.667 -21 63 -21 103c0 54.667 16.333 99 49 133
c44.667 46.667 116.334 70 215.001 70h316v-667zM505.998 372l-0.000976562 176.001h-189c-38 0 -64.5 -6.83301 -79.5 -20.5s-22.5 -34.834 -22.5 -63.501c0 -32 7.33301 -55.333 22 -70s41.334 -22 80.001 -22h189z" />
    <glyph glyph-name="germandbls" unicode="&#x42f;" horiz-adv-x="715" 
d="M648 0h-142.002v253h-114c-61.333 0 -107.166 -14 -137.499 -42s-45.5 -66.667 -45.5 -116v-95h-150l1 101c0 46 9.83301 85.833 29.5 119.5s48.167 55.5 85.5 65.5c-39.333 14 -68 39 -86 75c-14 28.667 -21 63 -21 103c0 54.667 16.333 99 49 133
c44.667 46.667 116.334 70 215.001 70h316v-667zM505.998 372l-0.000976562 176.001h-189c-38 0 -64.5 -6.83301 -79.5 -20.5s-22.5 -34.834 -22.5 -63.501c0 -32 7.33301 -55.333 22 -70s41.334 -22 80.001 -22h189z" />
    <glyph glyph-name="agrave" unicode="&#xe0;" horiz-adv-x="595" 
d="M526 0h-302.001c-55.333 0 -97.333 10.667 -126 32c-32.667 24 -49 61.333 -49 112c0 45.333 12.333 81 37 107c28.667 30 72.667 45 132 45h184v9c0 30.667 -7.66699 53 -23 67s-41.666 21 -78.999 21h-226v94h266c52 0 90.667 -8.66699 116 -26
c46.667 -32 70 -94.333 70 -187v-274zM401.999 94l-0.000976562 108h-177c-18 0 -32.5 -4.33301 -43.5 -13s-16.5 -22.667 -16.5 -42c0 -18 5.83301 -31.333 17.5 -40s25.834 -13 42.501 -13h177z" />
    <glyph glyph-name="agrave" unicode="&#x430;" horiz-adv-x="595" 
d="M526 0h-302.001c-55.333 0 -97.333 10.667 -126 32c-32.667 24 -49 61.333 -49 112c0 45.333 12.333 81 37 107c28.667 30 72.667 45 132 45h184v9c0 30.667 -7.66699 53 -23 67s-41.666 21 -78.999 21h-226v94h266c52 0 90.667 -8.66699 116 -26
c46.667 -32 70 -94.333 70 -187v-274zM401.999 94l-0.000976562 108h-177c-18 0 -32.5 -4.33301 -43.5 -13s-16.5 -22.667 -16.5 -42c0 -18 5.83301 -31.333 17.5 -40s25.834 -13 42.501 -13h177z" />
    <glyph glyph-name="aacute" unicode="&#xe1;" horiz-adv-x="597" 
d="M563 230c0 -67.333 -23.167 -122.503 -69.5 -165.503s-104.5 -64.5 -174.5 -64.5c-77.333 0 -138 22.667 -182 68c-47.333 48.667 -71 119.334 -71 212.001v35c0 96.667 23.333 175 70 235c50.667 65.333 122.667 98 216 98h190v-104h-190
c-52 0 -92.5 -12.167 -121.5 -36.5s-46.5 -59.166 -52.5 -104.499c12.667 16.667 34 29.834 64 39.501s59 14.5 87 14.5c156 0 234 -75.667 234 -227zM426 225.997c0 45.333 -10.5 77.833 -31.5 97.5s-52.833 29.5 -95.5 29.5c-34.667 0 -61.5 -10.5 -80.5 -31.5
s-28.5 -51.5 -28.5 -91.5c0 -35.333 8.66699 -64.333 26 -87c20 -26 47.667 -39 83 -39c36.667 0 67 11.333 91 34s36 52 36 88z" />
    <glyph glyph-name="aacute" unicode="&#x431;" horiz-adv-x="597" 
d="M563 230c0 -67.333 -23.167 -122.503 -69.5 -165.503s-104.5 -64.5 -174.5 -64.5c-77.333 0 -138 22.667 -182 68c-47.333 48.667 -71 119.334 -71 212.001v35c0 96.667 23.333 175 70 235c50.667 65.333 122.667 98 216 98h190v-104h-190
c-52 0 -92.5 -12.167 -121.5 -36.5s-46.5 -59.166 -52.5 -104.499c12.667 16.667 34 29.834 64 39.501s59 14.5 87 14.5c156 0 234 -75.667 234 -227zM426 225.997c0 45.333 -10.5 77.833 -31.5 97.5s-52.833 29.5 -95.5 29.5c-34.667 0 -61.5 -10.5 -80.5 -31.5
s-28.5 -51.5 -28.5 -91.5c0 -35.333 8.66699 -64.333 26 -87c20 -26 47.667 -39 83 -39c36.667 0 67 11.333 91 34s36 52 36 88z" />
    <glyph glyph-name="acircumflex" unicode="&#xe2;" horiz-adv-x="595" 
d="M541 144c0 -50 -17.999 -87.333 -53.999 -112c-31.333 -21.333 -75 -32 -131 -32h-302v487l308 1c60 0 104.333 -12 133 -36c25.333 -21.333 38 -52 38 -92c0 -28 -10.333 -52 -31 -72c-6.66699 -6.66699 -17.334 -14 -32.001 -22c26 -12 44.333 -28.5 55 -49.5
s16 -45.167 16 -72.5zM405.001 341c0 16.667 -5.66699 29.666 -17 38.999s-29.666 14 -54.999 14l-155 -1v-97h155c27.333 0 46.166 3.33301 56.499 10s15.5 18.334 15.5 35.001zM415.001 146.999c0 18.667 -5.66797 32.5 -17.001 41.5s-25.666 13.5 -42.999 13.5h-177v-108
h177c16 0 29.333 4 40 12c13.333 10 20 23.667 20 41z" />
    <glyph glyph-name="acircumflex" unicode="&#x432;" horiz-adv-x="595" 
d="M541 144c0 -50 -17.999 -87.333 -53.999 -112c-31.333 -21.333 -75 -32 -131 -32h-302v487l308 1c60 0 104.333 -12 133 -36c25.333 -21.333 38 -52 38 -92c0 -28 -10.333 -52 -31 -72c-6.66699 -6.66699 -17.334 -14 -32.001 -22c26 -12 44.333 -28.5 55 -49.5
s16 -45.167 16 -72.5zM405.001 341c0 16.667 -5.66699 29.666 -17 38.999s-29.666 14 -54.999 14l-155 -1v-97h155c27.333 0 46.166 3.33301 56.499 10s15.5 18.334 15.5 35.001zM415.001 146.999c0 18.667 -5.66797 32.5 -17.001 41.5s-25.666 13.5 -42.999 13.5h-177v-108
h177c16 0 29.333 4 40 12c13.333 10 20 23.667 20 41z" />
    <glyph glyph-name="atilde" unicode="&#xe3;" horiz-adv-x="468" 
d="M444 383h-142.002c-39.333 0 -66.166 -5.5 -80.499 -16.5s-21.5 -31.5 -21.5 -61.5v-305h-134v274c0 92.667 24.667 155 74 187c26.667 17.333 67.334 26 122.001 26h182v-104z" />
    <glyph glyph-name="atilde" unicode="&#x433;" horiz-adv-x="468" 
d="M444 383h-142.002c-39.333 0 -66.166 -5.5 -80.499 -16.5s-21.5 -31.5 -21.5 -61.5v-305h-134v274c0 92.667 24.667 155 74 187c26.667 17.333 67.334 26 122.001 26h182v-104z" />
    <glyph glyph-name="adieresis" unicode="&#xe4;" horiz-adv-x="615" 
d="M587 -89l-124 -0.000976562v71c0 6 -3 10.5 -9 13.5s-12.333 4.5 -19 4.5h-249c-6 0 -12.5 -1.66699 -19.5 -5s-10.5 -7.66602 -10.5 -12.999v-71h-125v131c0 14 4.5 26.167 13.5 36.5s20.167 15.5 33.5 15.5c13.333 13.333 24.5 36 33.5 68s13.5 69 13.5 111v214h412
v-393c14 0 25.833 -5.16699 35.5 -15.5s14.5 -22.5 14.5 -36.5v-131zM403 93.999l-0.000976562 290h-143v-111c0 -46 -5.33301 -89.667 -16 -131c-3.33301 -13.333 -8.66602 -29.333 -15.999 -48h175z" />
    <glyph glyph-name="adieresis" unicode="&#x434;" horiz-adv-x="615" 
d="M587 -89l-124 -0.000976562v71c0 6 -3 10.5 -9 13.5s-12.333 4.5 -19 4.5h-249c-6 0 -12.5 -1.66699 -19.5 -5s-10.5 -7.66602 -10.5 -12.999v-71h-125v131c0 14 4.5 26.167 13.5 36.5s20.167 15.5 33.5 15.5c13.333 13.333 24.5 36 33.5 68s13.5 69 13.5 111v214h412
v-393c14 0 25.833 -5.16699 35.5 -15.5s14.5 -22.5 14.5 -36.5v-131zM403 93.999l-0.000976562 290h-143v-111c0 -46 -5.33301 -89.667 -16 -131c-3.33301 -13.333 -8.66602 -29.333 -15.999 -48h175z" />
    <glyph glyph-name="aring" unicode="&#xe5;" horiz-adv-x="534" 
d="M493 192h-322c0 -32 9.66699 -54.667 29 -68s49 -20 89 -20h184v-104h-188c-85.333 -0 -149.666 23.333 -192.999 70c-39.333 42.667 -59 102.667 -59 180c0 68.667 20.667 124.667 62 168c44 46 104 69 180 69c77.333 0 134.666 -24.667 171.999 -74
c30.667 -40.667 46 -95 46 -163v-58zM382 296c0 30 -11.333 52.668 -34 68.001c-18.667 12.667 -43 19 -73 19c-35.333 0 -61.5 -6.83301 -78.5 -20.5s-25.5 -35.834 -25.5 -66.501h211z" />
    <glyph glyph-name="aring" unicode="&#x435;" horiz-adv-x="534" 
d="M493 192h-322c0 -32 9.66699 -54.667 29 -68s49 -20 89 -20h184v-104h-188c-85.333 -0 -149.666 23.333 -192.999 70c-39.333 42.667 -59 102.667 -59 180c0 68.667 20.667 124.667 62 168c44 46 104 69 180 69c77.333 0 134.666 -24.667 171.999 -74
c30.667 -40.667 46 -95 46 -163v-58zM382 296c0 30 -11.333 52.668 -34 68.001c-18.667 12.667 -43 19 -73 19c-35.333 0 -61.5 -6.83301 -78.5 -20.5s-25.5 -35.834 -25.5 -66.501h211z" />
    <glyph glyph-name="ae" unicode="&#xe6;" horiz-adv-x="770" 
d="M724 0h-134v114c0 28.667 -6 48.667 -18 60s-30.667 17 -56 17h-61v-191h-134v191h-61c-22.667 0 -40.667 -6.33301 -54 -19s-20 -32 -20 -58v-114h-134v118c0 62 17.333 107.333 52 136c24 20 50 30 78 30l-130 203h150l98 -203h21v203h134v-203h23l96 203h150
l-130 -203c41.333 0 74 -16.667 98 -50c21.333 -29.333 32 -68 32 -116v-118z" />
    <glyph glyph-name="ae" unicode="&#x436;" horiz-adv-x="770" 
d="M724 0h-134v114c0 28.667 -6 48.667 -18 60s-30.667 17 -56 17h-61v-191h-134v191h-61c-22.667 0 -40.667 -6.33301 -54 -19s-20 -32 -20 -58v-114h-134v118c0 62 17.333 107.333 52 136c24 20 50 30 78 30l-130 203h150l98 -203h21v203h134v-203h23l96 203h150
l-130 -203c41.333 0 74 -16.667 98 -50c21.333 -29.333 32 -68 32 -116v-118z" />
    <glyph glyph-name="ccedilla" unicode="&#xe7;" horiz-adv-x="512" 
d="M465 144c0 -54.667 -17.999 -93.334 -53.999 -116.001c-29.333 -18.667 -73 -28 -131 -28h-252v104h229c27.333 0 46.166 3.16699 56.499 9.5s15.5 17.5 15.5 33.5c0 30 -16.667 45 -50 45h-199v104l147 -1c27.333 0 46.166 3.16699 56.499 9.5s15.5 17.5 15.5 33.5
c0 14.667 -5.5 25.834 -16.5 33.501s-29.5 11.5 -55.5 11.5h-167v104h196c60.667 0 106.334 -13.333 137.001 -40c28 -24 42 -57.333 42 -100c0 -22 -6 -42.333 -18 -61c-4 -6 -10.333 -13.333 -19 -22c19.333 -13.333 35.333 -30.833 48 -52.5s19 -44.167 19 -67.5z" />
    <glyph glyph-name="ccedilla" unicode="&#x437;" horiz-adv-x="512" 
d="M465 144c0 -54.667 -17.999 -93.334 -53.999 -116.001c-29.333 -18.667 -73 -28 -131 -28h-252v104h229c27.333 0 46.166 3.16699 56.499 9.5s15.5 17.5 15.5 33.5c0 30 -16.667 45 -50 45h-199v104l147 -1c27.333 0 46.166 3.16699 56.499 9.5s15.5 17.5 15.5 33.5
c0 14.667 -5.5 25.834 -16.5 33.501s-29.5 11.5 -55.5 11.5h-167v104h196c60.667 0 106.334 -13.333 137.001 -40c28 -24 42 -57.333 42 -100c0 -22 -6 -42.333 -18 -61c-4 -6 -10.333 -13.333 -19 -22c19.333 -13.333 35.333 -30.833 48 -52.5s19 -44.167 19 -67.5z" />
    <glyph glyph-name="egrave" unicode="&#xe8;" horiz-adv-x="597" 
d="M537 0h-134v307l-203 -307h-134v490h134v-325l203 325h134v-490z" />
    <glyph glyph-name="egrave" unicode="&#x438;" horiz-adv-x="597" 
d="M537 0h-134v307l-203 -307h-134v490h134v-325l203 325h134v-490z" />
    <glyph glyph-name="eacute" unicode="&#xe9;" horiz-adv-x="597" 
d="M455 641c0 -34 -12.667 -63 -38 -87c-28 -26.667 -64.667 -40 -110 -40c-46 0 -82.833 12.5 -110.5 37.5s-41.5 54.833 -41.5 89.5h97c0 -16.667 5.33301 -29.667 16 -39s23.667 -14 39 -14c16.667 0 29.667 4.16699 39 12.5s14 21.833 14 40.5h95zM537 0h-134v307
l-203 -307h-134v490h134v-325l203 325h134v-490z" />
    <glyph glyph-name="eacute" unicode="&#x439;" horiz-adv-x="597" 
d="M455 641c0 -34 -12.667 -63 -38 -87c-28 -26.667 -64.667 -40 -110 -40c-46 0 -82.833 12.5 -110.5 37.5s-41.5 54.833 -41.5 89.5h97c0 -16.667 5.33301 -29.667 16 -39s23.667 -14 39 -14c16.667 0 29.667 4.16699 39 12.5s14 21.833 14 40.5h95zM537 0h-134v307
l-203 -307h-134v490h134v-325l203 325h134v-490z" />
    <glyph glyph-name="ecircumflex" unicode="&#xea;" horiz-adv-x="544" 
d="M469 0h-134v114c0 28.667 -6 48.667 -18 60s-30.667 17 -56 17h-61v-191h-134v487h134v-203h23l96 203h150l-130 -203c41.333 0 74 -16.667 98 -50c21.333 -29.333 32 -68 32 -116v-118z" />
    <glyph glyph-name="ecircumflex" unicode="&#x43a;" horiz-adv-x="544" 
d="M469 0h-134v114c0 28.667 -6 48.667 -18 60s-30.667 17 -56 17h-61v-191h-134v487h134v-203h23l96 203h150l-130 -203c41.333 0 74 -16.667 98 -50c21.333 -29.333 32 -68 32 -116v-118z" />
    <glyph glyph-name="edieresis" unicode="&#xeb;" horiz-adv-x="582" 
d="M517 0h-134v381h-77c-27.333 0 -46.833 -6.83301 -58.5 -20.5s-17.5 -41.5 -17.5 -83.5v-94c0 -56 -14.333 -99.333 -43 -130c-33.333 -35.333 -85.333 -53 -156 -53v104c20 0 35 3 45 9c12.667 8 19 22 19 42l1 149c0 60 13.667 104.333 41 133c32 33.333 85 50 159 50
h221v-487z" />
    <glyph glyph-name="edieresis" unicode="&#x43b;" horiz-adv-x="582" 
d="M517 0h-134v381h-77c-27.333 0 -46.833 -6.83301 -58.5 -20.5s-17.5 -41.5 -17.5 -83.5v-94c0 -56 -14.333 -99.333 -43 -130c-33.333 -35.333 -85.333 -53 -156 -53v104c20 0 35 3 45 9c12.667 8 19 22 19 42l1 149c0 60 13.667 104.333 41 133c32 33.333 85 50 159 50
h221v-487z" />
    <glyph glyph-name="igrave" unicode="&#xec;" horiz-adv-x="774" 
d="M706 1h-133.999v375l-134 -375h-114l-124 375v-375h-134v487h134c26 0 47.167 -6.5 63.5 -19.5s28.5 -31.833 36.5 -56.5l84 -278l92 278c9.33301 26.667 21.166 46 35.499 58s34.5 18 60.5 18h134v-487z" />
    <glyph glyph-name="igrave" unicode="&#x43c;" horiz-adv-x="774" 
d="M706 1h-133.999v375l-134 -375h-114l-124 375v-375h-134v487h134c26 0 47.167 -6.5 63.5 -19.5s28.5 -31.833 36.5 -56.5l84 -278l92 278c9.33301 26.667 21.166 46 35.499 58s34.5 18 60.5 18h134v-487z" />
    <glyph glyph-name="iacute" unicode="&#xed;" horiz-adv-x="597" 
d="M537 0h-134v213h-203v-213h-134v490h134v-173h203v173h134v-490z" />
    <glyph glyph-name="iacute" unicode="&#x43d;" horiz-adv-x="597" 
d="M537 0h-134v213h-203v-213h-134v490h134v-173h203v173h134v-490z" />
    <glyph glyph-name="icircumflex" unicode="&#xee;" horiz-adv-x="582" 
d="M548 238c0 -75.333 -23.333 -134.999 -70 -178.999s-110 -66 -190 -66c-80.667 0 -143.334 22 -188.001 66s-67 106.667 -67 188c0 74 23.333 133.667 70 179s109 68 187 68c84.667 0 149.334 -23.667 194.001 -71c42.667 -44.667 64 -106.334 64 -185.001zM411 244.001
c0 98 -40 147 -120 147c-80.667 0 -121 -49.667 -121 -149c0 -97.333 40.667 -146 122 -146c79.333 0 119 49.333 119 148z" />
    <glyph glyph-name="icircumflex" unicode="&#x43e;" horiz-adv-x="582" 
d="M548 238c0 -75.333 -23.333 -134.999 -70 -178.999s-110 -66 -190 -66c-80.667 0 -143.334 22 -188.001 66s-67 106.667 -67 188c0 74 23.333 133.667 70 179s109 68 187 68c84.667 0 149.334 -23.667 194.001 -71c42.667 -44.667 64 -106.334 64 -185.001zM411 244.001
c0 98 -40 147 -120 147c-80.667 0 -121 -49.667 -121 -149c0 -97.333 40.667 -146 122 -146c79.333 0 119 49.333 119 148z" />
    <glyph glyph-name="idieresis" unicode="&#xef;" horiz-adv-x="597" 
d="M537 0l-134 -0.000976562v277c0 43.333 -6.16699 71.833 -18.5 85.5s-37.833 20.5 -76.5 20.5h-108v-383h-134v487h271c73.333 0 126 -16.667 158 -50c28 -29.333 42 -73.666 42 -132.999v-304z" />
    <glyph glyph-name="idieresis" unicode="&#x43f;" horiz-adv-x="597" 
d="M537 0l-134 -0.000976562v277c0 43.333 -6.16699 71.833 -18.5 85.5s-37.833 20.5 -76.5 20.5h-108v-383h-134v487h271c73.333 0 126 -16.667 158 -50c28 -29.333 42 -73.666 42 -132.999v-304z" />
    <glyph glyph-name="eth" unicode="&#xf0;" horiz-adv-x="590" 
d="M557 236c0 -73.333 -19.667 -130.333 -59 -171c-41.333 -43.333 -101.333 -65 -180 -65h-118v-183h-134v670h264c72 0 127.833 -21.833 167.5 -65.5s59.5 -105.5 59.5 -185.5zM420 246c0 43.333 -11 77 -33 101s-53.667 36 -95 36h-92v-279h82c92 0 138 47.333 138 142z
" />
    <glyph glyph-name="eth" unicode="&#x440;" horiz-adv-x="590" 
d="M557 236c0 -73.333 -19.667 -130.333 -59 -171c-41.333 -43.333 -101.333 -65 -180 -65h-118v-183h-134v670h264c72 0 127.833 -21.833 167.5 -65.5s59.5 -105.5 59.5 -185.5zM420 246c0 43.333 -11 77 -33 101s-53.667 36 -95 36h-92v-279h82c92 0 138 47.333 138 142z
" />
    <glyph glyph-name="ntilde" unicode="&#xf1;" horiz-adv-x="510" 
d="M472 0l-183 -0.00195312c-91.333 0 -158 23 -200 69c-37.333 40.667 -56 99.334 -56 176.001s17.333 134.334 52 173.001c41.333 46 109.333 69 204 69h183v-104h-160c-50 0 -86.167 -10.833 -108.5 -32.5s-33.5 -57.167 -33.5 -106.5c0 -47.333 12 -82.5 36 -105.5
s64.333 -34.5 121 -34.5h145v-104z" />
    <glyph glyph-name="ntilde" unicode="&#x441;" horiz-adv-x="510" 
d="M472 0l-183 -0.00195312c-91.333 0 -158 23 -200 69c-37.333 40.667 -56 99.334 -56 176.001s17.333 134.334 52 173.001c41.333 46 109.333 69 204 69h183v-104h-160c-50 0 -86.167 -10.833 -108.5 -32.5s-33.5 -57.167 -33.5 -106.5c0 -47.333 12 -82.5 36 -105.5
s64.333 -34.5 121 -34.5h145v-104z" />
    <glyph glyph-name="ograve" unicode="&#xf2;" horiz-adv-x="439" 
d="M428 373h-144v-373h-134v373h-145v114h423v-114z" />
    <glyph glyph-name="ograve" unicode="&#x442;" horiz-adv-x="439" 
d="M428 373h-144v-373h-134v373h-145v114h423v-114z" />
    <glyph glyph-name="oacute" unicode="&#xf3;" horiz-adv-x="574" 
d="M507 10c0 -58.667 -13.335 -102 -40.002 -130c-33.333 -35.333 -89.666 -53 -168.999 -53h-239v104h239c24.667 0 42.334 3 53.001 9c14 8 21 22 21 42l1 18h-129c-68 -0 -118 20.333 -150 61c-23.333 30 -35 68 -35 114v312h134v-259c0 -51.333 4.5 -84.833 13.5 -100.5
s27.833 -23.5 56.5 -23.5h110v383h134v-477z" />
    <glyph glyph-name="oacute" unicode="&#x443;" horiz-adv-x="574" 
d="M507 10c0 -58.667 -13.335 -102 -40.002 -130c-33.333 -35.333 -89.666 -53 -168.999 -53h-239v104h239c24.667 0 42.334 3 53.001 9c14 8 21 22 21 42l1 18h-129c-68 -0 -118 20.333 -150 61c-23.333 30 -35 68 -35 114v312h134v-259c0 -51.333 4.5 -84.833 13.5 -100.5
s27.833 -23.5 56.5 -23.5h110v383h134v-477z" />
    <glyph glyph-name="ocircumflex" unicode="&#xf4;" horiz-adv-x="814" 
d="M780 236c0 -73.333 -19.667 -130.333 -59 -171c-41.333 -43.333 -101.333 -65 -180 -65h-68v-183h-134v183h-68c-78 0 -137.333 21 -178 63s-61 99.667 -61 173c0 80 19.833 141.833 59.5 185.5s95.5 65.5 167.5 65.5l80 1v183h134v-183l80 -1
c72 0 127.833 -21.833 167.5 -65.5s59.5 -105.5 59.5 -185.5zM643 246c0 43.333 -11 77 -33 101s-53.667 36 -95 36h-42v-279h32c92 0 138 47.333 138 142zM339 104v279h-42c-41.333 0 -73 -11.667 -95 -35s-33 -57.333 -33 -102c0 -94.667 46 -142 138 -142h32z" />
    <glyph glyph-name="ocircumflex" unicode="&#x444;" horiz-adv-x="814" 
d="M780 236c0 -73.333 -19.667 -130.333 -59 -171c-41.333 -43.333 -101.333 -65 -180 -65h-68v-183h-134v183h-68c-78 0 -137.333 21 -178 63s-61 99.667 -61 173c0 80 19.833 141.833 59.5 185.5s95.5 65.5 167.5 65.5l80 1v183h134v-183l80 -1
c72 0 127.833 -21.833 167.5 -65.5s59.5 -105.5 59.5 -185.5zM643 246c0 43.333 -11 77 -33 101s-53.667 36 -95 36h-42v-279h32c92 0 138 47.333 138 142zM339 104v279h-42c-41.333 0 -73 -11.667 -95 -35s-33 -57.333 -33 -102c0 -94.667 46 -142 138 -142h32z" />
    <glyph glyph-name="otilde" unicode="&#xf5;" horiz-adv-x="525" 
d="M521 0h-157l-100 139l-103 -139h-157l183 241l-175 246h149l103 -144l100 144h157l-182 -246z" />
    <glyph glyph-name="otilde" unicode="&#x445;" horiz-adv-x="525" 
d="M521 0h-157l-100 139l-103 -139h-157l183 241l-175 246h149l103 -144l100 144h157l-182 -246z" />
    <glyph glyph-name="odieresis" unicode="&#xf6;" horiz-adv-x="600" 
d="M254 0c-66 0 -115 14.667 -147 44s-48 77 -48 143v300h134v-313c0 -46.667 21.333 -70 64 -70h126v383h134v-383c14 0 25.833 -5.16699 35.5 -15.5s14.5 -22.5 14.5 -36.5v-141h-124v71c0 6 -3 10.5 -9 13.5s-12.333 4.5 -19 4.5h-161z" />
    <glyph glyph-name="odieresis" unicode="&#x446;" horiz-adv-x="600" 
d="M254 0c-66 0 -115 14.667 -147 44s-48 77 -48 143v300h134v-313c0 -46.667 21.333 -70 64 -70h126v383h134v-383c14 0 25.833 -5.16699 35.5 -15.5s14.5 -22.5 14.5 -36.5v-141h-124v71c0 6 -3 10.5 -9 13.5s-12.333 4.5 -19 4.5h-161z" />
    <glyph glyph-name="divide" unicode="&#xf7;" horiz-adv-x="597" 
d="M519 0l-134 0.000976562v170h-137c-73.333 0 -126 16.667 -158 50c-28 29.333 -42 73.666 -42 132.999v134h134v-107c0 -43.333 6.16699 -71.833 18.5 -85.5s37.833 -20.5 76.5 -20.5h108v213h134v-487z" />
    <glyph glyph-name="divide" unicode="&#x447;" horiz-adv-x="597" 
d="M519 0l-134 0.000976562v170h-137c-73.333 0 -126 16.667 -158 50c-28 29.333 -42 73.666 -42 132.999v134h134v-107c0 -43.333 6.16699 -71.833 18.5 -85.5s37.833 -20.5 76.5 -20.5h108v213h134v-487z" />
    <glyph glyph-name="oslash" unicode="&#xf8;" horiz-adv-x="822" 
d="M478 487v-383h144v383h134v-487h-502c-66 0 -115 14.667 -147 44s-48 77 -48 143v300h134v-313c0 -46.667 21.333 -70 64 -70h87v383h134z" />
    <glyph glyph-name="oslash" unicode="&#x448;" horiz-adv-x="822" 
d="M478 487v-383h144v383h134v-487h-502c-66 0 -115 14.667 -147 44s-48 77 -48 143v300h134v-313c0 -46.667 21.333 -70 64 -70h87v383h134z" />
    <glyph glyph-name="ugrave" unicode="&#xf9;" horiz-adv-x="838" 
d="M254 0c-66 0 -115 14.667 -147 44s-48 77 -48 143v300h134v-313c0 -46.667 21.333 -70 64 -70h87v383h134v-383h144v383h134v-383c14 0 25.833 -5.16699 35.5 -15.5s14.5 -22.5 14.5 -36.5v-141h-124v71c0 6 -3 10.5 -9 13.5s-12.333 4.5 -19 4.5h-400z" />
    <glyph glyph-name="ugrave" unicode="&#x449;" horiz-adv-x="838" 
d="M254 0c-66 0 -115 14.667 -147 44s-48 77 -48 143v300h134v-313c0 -46.667 21.333 -70 64 -70h87v383h134v-383h144v383h134v-383c14 0 25.833 -5.16699 35.5 -15.5s14.5 -22.5 14.5 -36.5v-141h-124v71c0 6 -3 10.5 -9 13.5s-12.333 4.5 -19 4.5h-400z" />
    <glyph glyph-name="uacute" unicode="&#xfa;" horiz-adv-x="622" 
d="M581 164c0 -56 -18 -98.001 -54 -126.001c-32 -25.333 -75.667 -38 -131 -38h-292v358c0 7.33301 -2.66699 14 -8 20s-12 9 -20 9h-51v100h89c34.667 0 64 -12.667 88 -38s36 -55.666 36 -90.999v-32h158c59.333 0 105 -14 137 -42s48 -68 48 -120zM465 163.999
c0 18 -6.5 32.167 -19.5 42.5s-29.5 15.5 -49.5 15.5h-158v-118h158c46 0 69 20 69 60z" />
    <glyph glyph-name="uacute" unicode="&#x44a;" horiz-adv-x="622" 
d="M581 164c0 -56 -18 -98.001 -54 -126.001c-32 -25.333 -75.667 -38 -131 -38h-292v358c0 7.33301 -2.66699 14 -8 20s-12 9 -20 9h-51v100h89c34.667 0 64 -12.667 88 -38s36 -55.666 36 -90.999v-32h158c59.333 0 105 -14 137 -42s48 -68 48 -120zM465 163.999
c0 18 -6.5 32.167 -19.5 42.5s-29.5 15.5 -49.5 15.5h-158v-118h158c46 0 69 20 69 60z" />
    <glyph glyph-name="ucircumflex" unicode="&#xfb;" horiz-adv-x="784" 
d="M727 0h-134v490h134v-490zM531 164c0 -56 -18 -98 -54 -126c-32 -25.333 -75.667 -38 -131 -38h-292v487h134v-161h158c59.333 0 105 -14 137 -42s48 -68 48 -120zM415 164c0 18 -6.5 32.167 -19.5 42.5s-29.5 15.5 -49.5 15.5h-158v-118h158c46 0 69 20 69 60z" />
    <glyph glyph-name="ucircumflex" unicode="&#x44b;" horiz-adv-x="784" 
d="M727 0h-134v490h134v-490zM531 164c0 -56 -18 -98 -54 -126c-32 -25.333 -75.667 -38 -131 -38h-292v487h134v-161h158c59.333 0 105 -14 137 -42s48 -68 48 -120zM415 164c0 18 -6.5 32.167 -19.5 42.5s-29.5 15.5 -49.5 15.5h-158v-118h158c46 0 69 20 69 60z" />
    <glyph glyph-name="udieresis" unicode="&#xfc;" horiz-adv-x="570" 
d="M531 164c0 -56 -18 -98 -54 -126c-32 -25.333 -75.667 -38 -131 -38h-292v487h134v-161h158c59.333 0 105 -14 137 -42s48 -68 48 -120zM415 164c0 18 -6.5 32.167 -19.5 42.5s-29.5 15.5 -49.5 15.5h-158v-118h158c46 0 69 20 69 60z" />
    <glyph glyph-name="udieresis" unicode="&#x44c;" horiz-adv-x="570" 
d="M531 164c0 -56 -18 -98 -54 -126c-32 -25.333 -75.667 -38 -131 -38h-292v487h134v-161h158c59.333 0 105 -14 137 -42s48 -68 48 -120zM415 164c0 18 -6.5 32.167 -19.5 42.5s-29.5 15.5 -49.5 15.5h-158v-118h158c46 0 69 20 69 60z" />
    <glyph glyph-name="yacute" unicode="&#xfd;" horiz-adv-x="510" 
d="M467 245c0 -76 -18.666 -134.333 -55.999 -175c-42.667 -46.667 -109.334 -70 -200.001 -70h-183v104h145c45.333 0 80 7.16699 104 21.5s40 36.5 48 66.5h-193v104h193c-13.333 58 -59 87 -137 87h-160v104h183c94 0 161.667 -23 203 -69c35.333 -39.333 53 -97 53 -173
z" />
    <glyph glyph-name="yacute" unicode="&#x44d;" horiz-adv-x="510" 
d="M467 245c0 -76 -18.666 -134.333 -55.999 -175c-42.667 -46.667 -109.334 -70 -200.001 -70h-183v104h145c45.333 0 80 7.16699 104 21.5s40 36.5 48 66.5h-193v104h193c-13.333 58 -59 87 -137 87h-160v104h183c94 0 161.667 -23 203 -69c35.333 -39.333 53 -97 53 -173
z" />
    <glyph glyph-name="thorn" unicode="&#xfe;" horiz-adv-x="808" 
d="M774 238c0 -75.333 -23.333 -135 -70 -179s-110 -66 -190 -66c-74.667 0 -134 19 -178 57s-69.333 92.333 -76 163h-54v-213h-134v490h134v-173h61c13.333 54.667 42.166 97.834 86.499 129.501s98.5 47.5 162.5 47.5c84.667 0 149.334 -23.667 194.001 -71
c42.667 -44.667 64 -106.334 64 -185.001zM637 244c0 98 -40 147 -120 147c-80.667 0 -121 -49.667 -121 -149c0 -97.333 40.667 -146 122 -146c79.333 0 119 49.333 119 148z" />
    <glyph glyph-name="thorn" unicode="&#x44e;" horiz-adv-x="808" 
d="M774 238c0 -75.333 -23.333 -135 -70 -179s-110 -66 -190 -66c-74.667 0 -134 19 -178 57s-69.333 92.333 -76 163h-54v-213h-134v490h134v-173h61c13.333 54.667 42.166 97.834 86.499 129.501s98.5 47.5 162.5 47.5c84.667 0 149.334 -23.667 194.001 -71
c42.667 -44.667 64 -106.334 64 -185.001zM637 244c0 98 -40 147 -120 147c-80.667 0 -121 -49.667 -121 -149c0 -97.333 40.667 -146 122 -146c79.333 0 119 49.333 119 148z" />
    <glyph glyph-name="ydieresis" unicode="&#xff;" horiz-adv-x="585" 
d="M516 1h-124.001v160h-125c-25.333 0 -43.666 -6.66699 -54.999 -20s-17 -31 -17 -53v-87h-136v87c0 32 8 57.667 24 77c10 12 23.667 21.667 41 29c-29.333 14.667 -50 36 -62 64c-8.66699 20 -13 45.333 -13 76c0 50 17.333 88.167 52 114.5s79 39.5 133 39.5h282v-487z
M391.999 266v118h-158c-46 0 -69 -20 -69 -60c0 -18 6.5 -32.167 19.5 -42.5s29.5 -15.5 49.5 -15.5h158z" />
    <glyph glyph-name="ydieresis" unicode="&#x44f;" horiz-adv-x="585" 
d="M516 1h-124.001v160h-125c-25.333 0 -43.666 -6.66699 -54.999 -20s-17 -31 -17 -53v-87h-136v87c0 32 8 57.667 24 77c10 12 23.667 21.667 41 29c-29.333 14.667 -50 36 -62 64c-8.66699 20 -13 45.333 -13 76c0 50 17.333 88.167 52 114.5s79 39.5 133 39.5h282v-487z
M391.999 266v118h-158c-46 0 -69 -20 -69 -60c0 -18 6.5 -32.167 19.5 -42.5s29.5 -15.5 49.5 -15.5h158z" />
    <glyph glyph-name="dotlessi" unicode="&#x131;" horiz-adv-x="266" 
d="M66 487h134v-487h-134v487z" />
    <glyph glyph-name="OE" unicode="&#x152;" horiz-adv-x="1112" 
d="M1068 0l-184.999 -0.000976562c-74 0 -130.333 6 -169 18s-72 34 -100 66c-51.333 -58.667 -132.333 -88 -243 -88c-64.667 0 -121.167 10 -169.5 30s-85.5 49 -111.5 87c-38.667 54.667 -58 127 -58 217c0 131.333 33.667 223.666 101 276.999
c53.333 43.333 129.333 65 228 65c54 0 103.5 -8 148.5 -24s79.833 -37.667 104.5 -65c26.667 30.667 56 52.334 88 65.001s74 19 126 19h240v-119h-185c-48 0 -83.167 -3.33301 -105.5 -10s-40.833 -19.667 -55.5 -39c-11.333 -15.333 -19 -29.333 -23 -42
s-6 -34.667 -6 -66h375v-119h-375c5.33301 -57.333 22.166 -97.166 50.499 -119.499s76.833 -33.5 145.5 -33.5h179v-119zM362.001 558.999c-67.333 0 -115 -22.3311 -143 -66.998c-20.667 -32.667 -31 -85.334 -31 -158.001c0 -77.333 14 -134.333 42 -171s72 -55 132 -55
c59.333 0 102.833 18.167 130.5 54.5s41.5 93.166 41.5 170.499c0 78 -13.833 135.167 -41.5 171.5s-71.167 54.5 -130.5 54.5z" />
    <glyph glyph-name="oe" unicode="&#x153;" horiz-adv-x="897" 
d="M852 0h-178c-46 0 -82.167 4.66699 -108.5 14s-52.833 27 -79.5 53c-46 -49.333 -112 -74 -198 -74c-80 0 -142.5 22.167 -187.5 66.5s-67.5 106.166 -67.5 185.499c0 76 23.167 136.5 69.5 181.5s108.5 67.5 186.5 67.5c88 0 152.667 -24 194 -72
c21.333 23.333 45.666 40 72.999 50s63.333 15 108 15h188v-104h-178c-36.667 0 -62.334 -6.16699 -77.001 -18.5s-23.667 -35.166 -27 -68.499h282v-104h-282c0 -31.333 12 -55 36 -71c8.66699 -6 19.334 -10.333 32.001 -13s29.334 -4 50.001 -4h164v-104zM291 392
c-80.667 0 -121 -50.333 -121 -151c0 -96.667 40.333 -145 121 -145c80 0 120 49 120 147c0 99.333 -40 149 -120 149z" />
    <glyph glyph-name="Scaron" unicode="&#x160;" horiz-adv-x="695" 
d="M66 0l0.000976562 119.002h304c49.333 0 82.333 5.33301 99 16c22 13.333 33 33.666 33 60.999c0 33.333 -14.333 57 -43 71c-14 8 -38 12 -72 12h-123c-77.333 0 -133 14.667 -167 44c-42 36.667 -63 85.667 -63 147c0 42 10.667 80 32 114s49.333 57 84 69
c14.667 5.33301 32.334 9 53.001 11s50.667 3 90 3h330v-119h-298c-30.667 0 -50.167 -0.333008 -58.5 -1s-18.5 -2.33398 -30.5 -5.00098c-30 -7.33301 -45 -30 -45 -68c0 -32 12.667 -53.667 38 -65c10 -4.66699 20.167 -7.66699 30.5 -9s28.166 -2 53.499 -2h107
c50 0 89.167 -4 117.5 -12s52.5 -22.333 72.5 -43c14.667 -14.667 26.667 -35.667 36 -63s14 -55.333 14 -84c0 -35.333 -7.66699 -68.333 -23 -99s-36 -54 -62 -70c-16 -10 -36.833 -17 -62.5 -21s-62.834 -6 -111.501 -6h-335zM367.001 769.002l62 71h102l-109 -123h-110
l-108 123h101z" />
    <glyph glyph-name="scaron" unicode="&#x161;" horiz-adv-x="549" 
d="M489 487l0.00195312 -104.001h-238c-30 0 -49.833 -2.83301 -59.5 -8.5s-14.5 -17.167 -14.5 -34.5c0 -18 7.66699 -31.667 23 -41c8.66699 -4.66699 30 -7 64 -7h79c53.333 0 94.666 -12 123.999 -36s44 -58.333 44 -103c0 -30.667 -7.33301 -59.167 -22 -85.5
s-33.667 -44.5 -57 -54.5c-18 -8.66699 -54.333 -13 -109 -13h-277v104h238l63 2c22 3.33301 33 16.333 33 39c0 22 -8.33301 36 -25 42c-7.33301 4 -26 6 -56 6h-82c-32 0 -56.833 2 -74.5 6s-34.334 12.167 -50.001 24.5s-28.5 29.5 -38.5 51.5s-15 45.333 -15 70
c0 50.667 18.667 90.334 56 119.001c11.333 8.66699 24.833 14.667 40.5 18s38.167 5 67.5 5h286zM285.002 595.999l63 79h97l-106 -130h-108l-106 130h96z" />
    <glyph glyph-name="Ydieresis" unicode="&#x178;" horiz-adv-x="654" 
d="M250 292l-247 375h167l153 -260l161 260h168l-260 -380v-287h-142v292zM479 830v-110h-108v110h108zM284 830v-110h-108v110h108z" />
    <glyph glyph-name="florin" unicode="&#x192;" horiz-adv-x="506" 
d="M179 316h-88l17 104h88l15 96c8 48.667 23 85 45 109c27.333 28 67.333 42 120 42h118l-17 -104h-67c-38.667 0 -60.667 -18 -66 -54l-14 -89h125l-17 -104h-125l-47 -299c-9.33301 -57.333 -26.5 -97.833 -51.5 -121.5s-63.167 -35.5 -114.5 -35.5h-118l16 104h68
c27.333 0 45.666 6.66699 54.999 20c2.66699 4.66699 4.83398 10 6.50098 16s4.16699 17.667 7.5 35z" />
    <glyph glyph-name="circumflex" unicode="&#x2c6;" 
d="M250 624l-63 -79h-97l106 130h108l106 -130h-96z" />
    <glyph glyph-name="caron" unicode="&#x2c7;" 
d="M250 596l63 79h97l-106 -130h-108l-106 130h96z" />
    <glyph glyph-name="breve" unicode="&#x2d8;" 
d="M103 675h74.001c9.33301 -37.333 33.666 -56 72.999 -56c40 0 64 18.667 72 56h74c0 -41.333 -13.167 -73.5 -39.5 -96.5s-61.833 -34.5 -106.5 -34.5c-44 0 -79.5 11.5 -106.5 34.5s-40.5 55.167 -40.5 96.5z" />
    <glyph glyph-name="dotaccent" unicode="&#x2d9;" 
d="M304 660v-110h-107v110h107z" />
    <glyph glyph-name="ring" unicode="&#x2da;" 
d="M251 725c25.333 0 47.334 -9.33398 66.001 -28.001s28 -41 28 -67s-9.16699 -48.5 -27.5 -67.5s-40.833 -28.5 -67.5 -28.5s-49.334 9.33301 -68.001 28s-28 41.334 -28 68.001s9.5 49.167 28.5 67.5s41.833 27.5 68.5 27.5zM250.001 667.999
c-11.333 0 -20.666 -3.66699 -27.999 -11s-11 -16.333 -11 -27c0 -11.333 3.66699 -20.666 11 -27.999s16.666 -11 27.999 -11c10.667 0 19.667 3.66699 27 11s11 16.666 11 27.999c0 10.667 -3.66699 19.667 -11 27s-16.333 11 -27 11z" />
    <glyph glyph-name="ogonek" unicode="&#x2db;" 
d="M406 0l73.999 0.000976562c-40 -21.333 -60 -46 -60 -74c0 -24.667 14 -37 42 -37c13.333 0 28.333 3.66699 45 11v-57c-23.333 -8.66699 -45.666 -13 -66.999 -13c-63.333 0 -95 25.333 -95 76c0 37.333 20.333 68.666 61 93.999z" />
    <glyph glyph-name="tilde" unicode="&#x2dc;" 
d="M351 658h60.001c-8 -72 -39 -108 -93 -108c-12 0 -23.333 1.33301 -34 4s-25.667 8 -45 16c-26.667 10.667 -44.334 16 -53.001 16c-20.667 0 -33.334 -11.333 -38.001 -34h-60c10 72 41.333 108 94 108c10 0 20.333 -1.33301 31 -4s27.334 -8.5 50.001 -17.5
s40 -13.5 52 -13.5c19.333 0 31.333 11 36 33z" />
    <glyph glyph-name="endash" unicode="&#x2013;" horiz-adv-x="720" 
d="M586 318v-100h-453v100h453z" />
    <glyph glyph-name="emdash" unicode="&#x2014;" horiz-adv-x="697" 
d="M697 318v-100h-697v100h697z" />
    <glyph glyph-name="quoteleft" unicode="&#x2018;" horiz-adv-x="234" 
d="M51 400v116l77 151h61l-61 -137h44v-130h-121z" />
    <glyph glyph-name="quoteright" unicode="&#x2019;" horiz-adv-x="234" 
d="M182 667v-116l-77 -151h-61l61 137h-44v130h121z" />
    <glyph glyph-name="quotesinglbase" unicode="&#x201a;" horiz-adv-x="234" 
d="M182 130v-116l-77 -151h-61l61 137h-44v130h121z" />
    <glyph glyph-name="quotedblleft" unicode="&#x201c;" horiz-adv-x="428" 
d="M51 400v116l77 151h61l-61 -137h44v-130h-121zM246 400v116l77 151h61l-61 -137h44v-130h-121z" />
    <glyph glyph-name="quotedblright" unicode="&#x201d;" horiz-adv-x="428" 
d="M182 667v-116l-77 -151h-61l61 137h-44v130h121zM377 667v-116l-77 -151h-61l61 137h-44v130h121z" />
    <glyph glyph-name="quotedblbase" unicode="&#x201e;" horiz-adv-x="428" 
d="M182 130v-116l-77 -151h-61l61 137h-44v130h121zM377 130v-116l-77 -151h-61l61 137h-44v130h121z" />
    <glyph glyph-name="dagger" unicode="&#x2020;" horiz-adv-x="543" 
d="M338 -155h-134v538h-171v104h171v180h134v-180h172v-104h-172v-538z" />
    <glyph glyph-name="daggerdbl" unicode="&#x2021;" horiz-adv-x="543" 
d="M338 258h172v-104h-172v-309h-134v309h-171v104h171v125h-171v104h171v180h134v-180h172v-104h-172v-125z" />
    <glyph glyph-name="bullet" unicode="&#x2022;" horiz-adv-x="667" 
d="M337 478c37.333 0 69.334 -13.6689 96.001 -41.002s40 -59.666 40 -96.999c0 -38.667 -13.5 -71.5 -40.5 -98.5s-59.5 -40.5 -97.5 -40.5s-70.667 13.333 -98 40s-41 59.334 -41 98.001c0 39.333 13.667 72.333 41 99s60.666 40 99.999 40z" />
    <glyph glyph-name="ellipsis" unicode="&#x2026;" horiz-adv-x="672" 
d="M172 130v-130h-121v130h121zM396 130v-130h-121v130h121zM620 130v-130h-121v130h121z" />
    <glyph glyph-name="perthousand" unicode="&#x2030;" horiz-adv-x="1278" 
d="M215 670c119.333 0 179 -56.333 179 -169c0 -112 -56.667 -168 -170 -168c-123.333 0 -185 56.667 -185 170c0 111.333 58.667 167 176 167zM214 598c-51.333 0 -77 -31 -77 -93c0 -35.333 6.5 -60.833 19.5 -76.5s34.167 -23.5 63.5 -23.5c50.667 0 76 33 76 99
c0 62.667 -27.333 94 -82 94zM531 667h85l-269 -667h-85zM664 333c119.333 0 179 -56.333 179 -169c0 -112 -56.667 -168 -170 -168c-124 0 -186 56.667 -186 170c0 111.333 59 167 177 167zM662 261c-51.333 0 -77 -31.332 -77 -93.999c0 -34.667 6.5 -59.834 19.5 -75.501
s34.5 -23.5 64.5 -23.5c50.667 0 76 33 76 99c0 62.667 -27.667 94 -83 94zM1059 333.001c119.333 0 179 -56.333 179 -169c0 -112 -56.667 -168 -170 -168c-124 0 -186 56.667 -186 170c0 111.333 59 167 177 167zM1057 261.001c-51.333 0 -77 -31.332 -77 -93.999
c0 -34.667 6.5 -59.834 19.5 -75.501s34.5 -23.5 64.5 -23.5c50.667 0 76 33 76 99c0 62.667 -27.667 94 -83 94z" />
    <glyph glyph-name="guilsinglleft" unicode="&#x2039;" horiz-adv-x="225" 
d="M175 408v-119l-70 -49l70 -47v-119l-133 105v121z" />
    <glyph glyph-name="guilsinglright" unicode="&#x203a;" horiz-adv-x="225" 
d="M50 408l133 -108v-121l-133 -105v119l70 47l-70 49v119z" />
    <glyph glyph-name="trademark" unicode="&#x2122;" horiz-adv-x="898" 
d="M131 595h-128v72h351v-72h-131v-302h-92v302zM527 667l98 -280l102 280h130v-374h-88v261l-99 -261h-92l-93 260v-260h-88v374h130z" />
    <glyph glyph-name=".null" horiz-adv-x="0" 
 />
    <glyph glyph-name="nonmarkingreturn" horiz-adv-x="250" 
 />
    </font>
</defs>
</svg>
